<svg width="242" height="361" viewBox="0 0 242 361" fill="none" xmlns="http://www.w3.org/2000/svg">
<path d="M225.093 60.7681C230.724 68.8238 235.2 77.0829 238.521 85.5456C240.087 89.5383 240.637 93.7175 240.169 98.0832C239.002 108.981 231.184 117.166 223.062 123.655C222.968 123.729 222.977 123.786 223.09 123.826L224.094 124.172C224.19 124.204 224.28 124.19 224.362 124.13C236.839 115.121 244.94 101.212 239.646 85.4704C238.759 82.8323 237.634 80.5522 237.54 77.484C236.696 49.7035 228.063 24.6753 211.641 2.39959C211.109 1.67766 210.737 1.24851 210.525 1.11214C210.234 0.925641 209.985 0.971765 209.779 1.25051C209.759 1.27726 209.746 1.30866 209.741 1.34179C209.736 1.37492 209.74 1.40871 209.752 1.44002C214.375 13.5144 217.112 25.8956 219.621 38.4874C219.994 40.3644 219.814 42.07 218.021 42.9002C216.354 43.6723 214.942 43.2963 213.783 41.7722C211.133 38.2848 208.371 34.8877 205.495 31.5809C205.425 31.5006 205.339 31.4736 205.237 31.4996L204.966 31.5658C204.901 31.5823 204.841 31.6115 204.788 31.6516C204.734 31.6917 204.69 31.742 204.656 31.7995C204.623 31.8569 204.602 31.9204 204.593 31.9862C204.585 32.052 204.59 32.1187 204.608 32.1825C206.601 39.2334 208.571 46.2963 210.516 53.3713C211.166 55.7326 210.432 58.0759 207.685 58.4158C207.178 58.48 206.797 58.46 206.542 58.3557C197.891 54.8342 189.342 51.0762 180.895 47.0814C180.167 46.7385 179.388 46.5249 178.633 46.3204C178.286 46.2281 178.083 46.3595 178.023 46.7145C177.454 50.0865 184.442 56.244 186.939 58.0037C188.154 58.858 189.906 59.8256 192.194 60.9065C201.471 65.2863 211.719 69.5848 219.636 76.2326C222.031 78.245 222.043 80.6094 221.348 83.6596C220.033 89.426 217.137 95.0391 213.777 99.8008C207.827 108.238 200.306 115.726 192.245 122.169C189.225 124.581 185.988 124.861 182.487 125.785C178.047 126.956 173.809 128.636 169.775 130.826C168.021 131.777 165.933 131.446 164.901 129.74C164.559 129.173 164.287 128.05 164.086 126.371C162.793 115.5 160.356 104.184 154.463 94.7683C153.182 92.7199 151.212 90.175 150.081 87.8678C146.73 81.0485 146.098 72.647 146.339 65.1148C146.363 64.3407 146.26 63.6539 146.032 63.0543C146.011 63.0002 145.978 62.9515 145.936 62.9119C145.894 62.8723 145.843 62.8428 145.788 62.8257C145.732 62.8086 145.674 62.8043 145.617 62.8132C145.559 62.822 145.505 62.8438 145.457 62.8768C142.582 64.8712 140.951 69.4554 140.16 72.8004C138.476 79.9095 138.401 87.0807 139.937 94.3141C142.025 104.148 145.896 113.575 149.476 122.936C153.901 134.508 153.323 145.551 145.087 155.119C145.027 155.189 144.952 155.218 144.862 155.206L143.592 155.05C143.47 155.034 143.394 155.085 143.364 155.203L143.117 156.136C143.111 156.158 143.11 156.182 143.114 156.205C143.119 156.227 143.127 156.249 143.14 156.268C143.154 156.287 143.171 156.303 143.19 156.315C143.21 156.327 143.232 156.335 143.255 156.337L144.218 156.443C144.35 156.457 144.423 156.53 144.435 156.662C145.196 164.426 146.624 171.396 153.14 176.564C155.246 178.233 157.547 180.014 159.264 181.744C162.637 185.141 165.387 189.012 167.512 193.358C167.569 193.47 167.615 193.467 167.651 193.349C168.051 192.037 168.601 189.622 167.87 188.37C165.013 183.469 161.321 179.293 156.795 175.842C154.647 174.202 152.971 173.147 151.203 170.611C151.177 170.574 151.139 170.549 151.096 170.539C151.053 170.53 151.008 170.537 150.971 170.56L149.702 171.318C149.611 171.374 149.542 171.355 149.494 171.261C147.505 167.332 146.304 163.181 145.89 158.807C145.812 157.986 145.872 156.404 146.282 155.877C153.826 146.143 155.023 136.063 151.161 124.527C149.494 119.552 148.327 116.344 147.659 114.904C142.78 104.396 140.248 93.5401 140.064 82.336C140.013 79.2287 144.122 77.8359 145.954 80.2995C146.285 80.7447 146.601 81.5529 146.904 82.724C147.72 85.8885 148.909 88.7582 150.469 91.3331C151.904 93.7035 154.054 96.3626 155.375 98.7992C158.431 104.439 160.122 110.125 161.114 116.441C161.886 121.371 162.489 124.815 162.922 126.774C163.773 130.615 164.838 134.553 166.974 137.886C166.988 137.908 167.009 137.925 167.033 137.934C167.058 137.943 167.084 137.943 167.109 137.936C167.134 137.928 167.156 137.912 167.17 137.89C167.185 137.869 167.192 137.843 167.191 137.817C167.058 134.589 168.469 132.679 171.279 131.292C178.711 127.625 186.448 125.953 194.435 124.019C204.244 121.645 212.405 117.618 219.573 110.455C228.685 101.359 230.838 87.537 222.253 77.2223C218.277 72.4455 212.089 69.4103 206.229 66.6038C201.901 64.5282 205.08 58.7888 208.888 60.4944C211.562 61.6916 214.432 62.572 217.501 63.1355C217.561 63.1471 217.624 63.1408 217.682 63.1173C217.739 63.0937 217.788 63.054 217.823 63.003C217.858 62.9519 217.878 62.8917 217.879 62.8298C217.881 62.7679 217.864 62.7069 217.831 62.6542C217.743 62.5138 217.713 62.3644 217.741 62.206C217.765 62.0696 217.708 61.9884 217.57 61.9624C215.593 61.5924 214.02 61.2795 213.428 59.1017C212.71 56.4686 212.005 53.8325 211.313 51.1935C210.266 47.2108 214.965 44.9156 217.242 48.3147C219.345 51.4552 221.441 54.5996 223.529 57.748C223.817 58.1852 223.889 58.8811 223.742 59.8356C223.724 59.95 223.769 60.0272 223.878 60.0673C224.535 60.3179 224.94 60.5516 225.093 60.7681Z" stroke="#FEB801" stroke-width="0.2"/>
<path d="M92.022 175.752C96.6213 171.474 98.4833 166.74 99.0609 160.603C99.2293 158.798 99.858 157.475 99.2534 155.468C99.2233 155.368 99.1561 155.325 99.0518 155.339L98.3149 155.435C98.2046 155.449 98.1103 155.418 98.0321 155.342C87.1489 144.633 89.3147 131.368 94.648 118.616C96.3055 114.655 98.1524 110.495 99.4098 106.662C102.668 96.7117 104.527 85.4705 102.974 75.0356C102.307 70.5475 100.598 65.9331 97.1658 62.8348C97.1367 62.809 97.1024 62.7898 97.0652 62.7785C97.0281 62.7671 96.9889 62.7639 96.9503 62.769C96.9118 62.7741 96.8748 62.7875 96.8419 62.8082C96.809 62.8289 96.781 62.8565 96.7597 62.889C96.2904 63.6049 96.1821 64.2516 96.2062 65.1811C96.4138 73.0201 95.6317 82.0504 91.8445 89.0983C91.4595 89.8162 90.6363 91.0676 89.3749 92.8523C82.0442 103.221 80.11 115.548 78.1397 127.839C77.5953 131.253 75.3182 131.957 72.4004 130.516C67.1142 127.903 61.5853 125.978 55.8139 124.741C52.2583 123.977 50.7513 122.677 47.6259 120.09C41.313 114.866 35.6207 109.029 30.5491 102.577C26.1242 96.9493 22.2258 90.1992 20.8932 83.3529C20.2374 79.9929 20.5593 77.9564 23.2455 75.9109C25.7923 73.9737 27.7737 72.597 29.1895 71.7808C35.5936 68.0959 42.4671 65.2623 49.0788 61.9655C55.1611 58.9334 62.4256 54.0543 64.3688 47.1147C64.5252 46.5572 64.3157 46.3135 63.7401 46.3837C63.2468 46.4439 62.6271 46.6474 61.8811 46.9943C53.5829 50.8447 45.2184 54.5456 36.7878 58.0971C34.6441 58.9995 33.0147 58.6125 31.8997 56.936C31.3222 56.0667 31.3162 55.08 31.5989 54.1144C33.7908 46.6965 35.8974 39.2706 37.9189 31.8367C37.9252 31.813 37.9258 31.7881 37.9207 31.7641C37.9157 31.7402 37.905 31.7178 37.8897 31.699C37.8744 31.6801 37.8548 31.6653 37.8327 31.6557C37.8105 31.6462 37.7864 31.6422 37.7624 31.6442C36.9082 31.7073 36.4118 32.0713 35.8824 32.7872C33.861 35.5146 31.7112 38.1336 29.4331 40.6443C28.4224 41.7573 27.6152 42.4562 27.0116 42.7409C24.3435 44.0103 22.3461 41.4685 22.8454 38.8726C25.4234 25.5077 27.896 13.671 32.6187 1.79211C32.6527 1.70588 32.6297 1.6387 32.5495 1.59057C32.0441 1.29578 31.642 1.34591 31.3432 1.74097C15.0435 23.3108 6.31109 47.7393 5.14596 75.0265C5.0477 77.3307 4.87424 79.0303 4.62557 80.1252C4.22048 81.9 3.58879 83.8181 2.73049 85.8796C1.16228 89.6518 0.659932 93.8089 1.22344 98.3511C2.55301 109.03 9.73327 117.949 18.1107 124.196C18.197 124.259 18.2892 124.273 18.3875 124.239L19.341 123.908C19.3639 123.9 19.3842 123.886 19.3997 123.867C19.4152 123.849 19.4254 123.827 19.4291 123.803C19.4328 123.779 19.43 123.754 19.4208 123.732C19.4116 123.71 19.3965 123.69 19.3771 123.676C8.8519 115.626 0.573701 104.924 2.82073 90.7978C3.18972 88.4856 3.7422 86.4211 4.47817 84.6042C7.5825 76.9517 11.7286 69.1357 16.9165 61.1563C17.3677 60.4605 18.0095 60.0042 18.8417 59.7877C18.95 59.7596 18.9941 59.6904 18.9741 59.5801C18.8176 58.7198 18.8938 58.0309 19.2027 57.5136C20.1151 55.9734 21.9992 53.0827 24.8548 48.8413C25.298 48.1815 25.7292 47.7323 26.1483 47.4937C28.2991 46.2604 30.9973 47.6351 31.1447 50.1318C31.1708 50.5629 31.0665 51.2157 30.8319 52.09C30.1069 54.8033 29.4963 57.9016 28.3472 60.4524C28.2971 60.5647 28.3342 60.6169 28.4585 60.6089C29.9264 60.5166 31.3924 60.4966 32.8563 60.5487C34.971 60.6269 36.7938 58.5754 38.9717 58.7469C40.9781 58.9033 42.4791 60.9578 41.8655 62.886C41.4744 64.1193 40.6171 64.6577 39.456 65.127C37.3403 65.9813 34.8276 67.1785 31.9178 68.7186C27.5922 71.0078 23.4019 73.6759 20.3367 77.2555C15.0004 83.4852 13.358 91.5739 16.0592 99.3618C18.6311 106.792 24.178 112.194 30.6183 116.721C36.1471 120.605 41.6489 122.924 48.1373 124.257C54.4632 125.559 62.221 127.018 68.2191 129.879C70.782 131.1 72.7423 132.278 74.0999 133.413C75.2871 134.406 75.7002 135.777 75.3392 137.528C75.3348 137.55 75.3378 137.573 75.3478 137.594C75.3577 137.614 75.3741 137.63 75.3944 137.64C75.4146 137.65 75.4376 137.653 75.4598 137.649C75.4819 137.644 75.5019 137.632 75.5167 137.615C78.0525 134.607 78.7925 130.354 79.37 126.48C80.5231 118.725 82.33 111.12 84.7906 103.666C86.2405 99.2655 88.8725 95.9085 91.3993 92.1244C93.3886 89.1484 94.8315 85.9338 95.7279 82.4805C96.1641 80.793 96.6935 79.6138 98.3479 79.1927C99.3687 78.93 100.307 79.1295 101.164 79.7913C102.812 81.0667 102.466 82.6881 102.367 84.6072C101.916 93.2855 100.102 101.558 97.0394 109.667C95.1083 114.787 92.9154 119.793 91.0835 124.951C87.3414 135.486 88.5958 145.704 95.5083 154.704C96.6424 156.181 97.1477 157.204 96.7326 158.946C95.7199 163.185 94.6962 167.428 93.6614 171.676C93.6556 171.7 93.6438 171.723 93.6271 171.743C93.6105 171.762 93.5893 171.777 93.5655 171.786C93.5417 171.796 93.5158 171.799 93.4901 171.797C93.4644 171.794 93.4396 171.786 93.4177 171.772L91.5678 170.605C91.4575 170.535 91.3632 170.552 91.285 170.656C90.1199 172.19 89.1804 173.206 88.4664 173.703C82.7832 177.658 78.1407 182.587 74.5391 188.491C73.8532 189.613 75.1738 194.005 75.631 195.355C75.6385 195.376 75.6522 195.395 75.6704 195.408C75.6885 195.421 75.7103 195.429 75.7327 195.429C75.7552 195.43 75.7773 195.424 75.7962 195.412C75.8151 195.4 75.8299 195.382 75.8386 195.361C77.6033 191.094 80.0368 187.276 83.1392 183.907C85.4133 181.437 88.9658 178.594 92.022 175.752Z" stroke="#FEB801" stroke-width="0.2"/>
<path d="M100.953 251.844L100.342 250.481C100.333 250.461 100.319 250.443 100.301 250.431C100.283 250.418 100.261 250.411 100.239 250.41C100.217 250.409 100.195 250.413 100.176 250.424C100.156 250.434 100.14 250.45 100.129 250.469C97.9388 254.075 95.75 257.689 93.5621 261.313C92.6025 262.904 91.1587 263.401 90.2322 261.418C84.954 250.12 79.6949 238.812 74.4549 227.493C73.5284 225.493 74.6714 224.001 76.8132 225.045C81.3273 227.245 86.0369 227.624 90.9421 226.182C91.0484 226.15 91.1015 226.079 91.1015 225.968V225.857C91.1015 225.751 91.1326 225.654 91.1948 225.568C93.0036 223.063 95.4512 222.218 98.5374 223.032C99.0288 223.161 99.1732 222.916 98.9706 222.298C98.9447 222.223 98.906 222.152 98.8563 222.091C95.9966 218.666 92.6707 215.777 88.8785 213.425C88.8111 213.382 88.7593 213.319 88.7311 213.244C88.7029 213.169 88.6997 213.087 88.7221 213.009L88.9688 212.197C88.9969 212.105 88.9668 212.038 88.8785 211.996C85.5636 210.454 82.0933 209.468 78.4676 209.039C77.5141 208.927 76.4703 208.588 76.1995 207.697C75.8626 206.592 75.3813 204.445 74.7557 201.257C74.6333 200.631 74.4127 199.999 74.0939 199.359C72.6701 196.497 71.7727 193.481 71.4017 190.311C70.6196 183.642 67.3859 177.854 61.6645 174.275C60.5425 173.571 59.7274 172.74 60.4012 171.432C61.1261 170.024 63.5386 170.187 63.1806 168.03C62.9219 166.46 59.8236 165.578 58.6053 165.052C57.1946 164.438 56.626 162.985 57.6879 161.749C58.4489 160.856 64.068 159.761 62.1519 157.52C60.5877 155.694 58.464 155.035 56.238 154.241C52.866 153.035 57.2728 149.04 55.6063 147.825C51.5193 144.845 46.6954 142.023 41.1345 139.36C38.9175 138.298 39.6575 135.6 41.8865 136.144C50.5949 138.274 61.2254 141.541 67.3197 148.643C68.3425 149.834 69.1185 151.281 69.8916 152.692C74.0127 160.191 79.6648 166.24 86.9113 170.842C86.9915 170.892 87.0637 170.883 87.1278 170.815L88.7161 169.155C88.7367 169.133 88.7523 169.107 88.7616 169.079C88.7709 169.05 88.7738 169.02 88.7701 168.991C88.7663 168.961 88.756 168.933 88.7399 168.907C88.7238 168.882 88.7023 168.861 88.677 168.845C81.2832 164.126 75.5949 157.942 71.6122 150.291C70.778 148.687 70.1042 147.552 69.5908 146.886C66.4173 142.756 61.5773 140.244 56.6441 138.397C45.8953 134.375 35.0542 130.614 24.1209 127.117C23.8902 127.045 23.4892 126.787 22.9176 126.344C22.8422 126.286 22.7478 126.258 22.6529 126.266C21.8849 126.316 21.4146 126.411 21.2421 126.552C17.1482 129.881 14.5462 132.547 14.7658 138.075C14.836 139.872 15.1027 141.649 15.5659 143.406C16.8684 148.354 18.5168 153.29 18.8357 158.431C20.1201 179.184 45.5323 188.924 62.6061 190.831C62.8467 190.857 63.2107 191.023 63.698 191.33C64.7568 191.998 65.8127 192.07 66.7181 193.045C73.4802 200.3 74.6474 209.427 71.7085 218.902C65.5089 238.885 58.7678 260.468 63.3641 281.599C64.5433 287.014 67.4822 292.651 69.8224 296.799C72.9348 302.318 74.7988 308.194 75.4144 314.426C75.4706 315.008 75.5989 315.544 75.7995 316.036C75.8456 316.15 75.9208 316.175 76.0251 316.111C76.9997 315.506 77.7908 314.417 78.7624 314.05C81.2381 313.115 82.2879 314.52 83.6896 316.52C84.578 317.789 85.5757 318.969 86.6826 320.058C89.2275 322.569 92.7379 324.094 95.0661 326.597C96.4579 328.093 97.5588 329.804 98.369 331.729C98.3845 331.765 98.4091 331.796 98.4404 331.819C98.4716 331.842 98.5084 331.857 98.547 331.861C98.5857 331.866 98.6249 331.86 98.6607 331.845C98.6965 331.83 98.7276 331.805 98.751 331.774C99.6053 330.637 100.201 328.998 101.145 328.167C102.863 326.663 105.158 327.286 106.187 329.244C107.396 331.554 107.471 333.188 107.474 336.208C107.483 344.522 112.528 350.794 117.615 357.072C118.965 358.738 121.985 362.104 124.199 359.984C125.529 358.711 126.242 357.667 127.656 355.742C130.781 351.495 134.427 344.922 134.779 339.58C134.967 336.718 135.302 333.876 135.783 331.052C135.954 330.047 136.211 329.32 136.556 328.871C137.624 327.478 139.79 327.232 141.213 328.233C142.419 329.085 142.699 331.338 143.938 331.798C144.053 331.842 144.133 331.807 144.179 331.693C145.493 328.444 147.404 326.257 150.315 324.368C153.732 322.156 156.69 319.443 159.189 316.228C160.434 314.625 161.43 313.626 163.44 314.198C164.504 314.499 165.295 315.551 166.3 316.117C166.37 316.156 166.448 316.177 166.528 316.179C166.608 316.18 166.687 316.161 166.757 316.124C166.828 316.087 166.888 316.032 166.931 315.966C166.975 315.9 167.001 315.823 167.007 315.744C167.512 309.569 169.142 303.797 171.895 298.427C173.269 295.745 174.647 293.066 176.028 290.389C178.672 285.269 179.788 280.071 180.324 274.151C181.674 259.213 178.615 243.788 174.139 229.596C173.191 226.592 172.252 223.583 171.324 220.569C170.365 217.45 169.808 215.524 169.651 214.79C168.855 211.036 168.952 207.313 169.943 203.621C171.492 197.846 174.759 191.953 181.226 190.813C183.763 190.366 185.404 190.07 186.15 189.926C199.596 187.345 218.135 179.039 222.476 164.414C223.117 162.254 223.348 159.637 223.682 157.231C224.398 152.12 225.532 147.223 226.94 142.314C229.055 134.935 227.343 131.304 221.468 126.747C220.93 126.332 220.454 126.335 219.82 126.188C219.719 126.166 219.627 126.185 219.543 126.245C218.968 126.663 218.493 127.045 217.801 127.27C209.643 129.93 201.521 132.694 193.433 135.564C186.725 137.943 178.672 140.368 173.736 145.83C171.522 148.285 170.313 151.672 168.535 154.4C164.709 160.274 159.799 165.08 153.805 168.818C153.694 168.886 153.68 168.97 153.763 169.071L155.203 170.827C155.29 170.93 155.389 170.946 155.501 170.875C162.751 166.337 168.423 160.373 172.518 152.983C173.849 150.581 174.688 149.15 175.033 148.691C177.535 145.37 181.726 142.918 185.347 141.306C190.018 139.233 195.017 137.508 200.345 136.132C202.74 135.516 203.558 138.43 202.018 139.113C198.533 140.665 195.166 142.439 191.917 144.435C190.082 145.563 187.432 147.226 186.59 149.268C186.53 149.412 186.522 149.572 186.565 149.721C186.609 149.87 186.703 149.999 186.83 150.087C188.804 151.455 187.742 153.934 185.606 154.406C183.38 154.902 181.5 156.007 179.966 157.721C179.898 157.799 179.88 157.887 179.912 157.983C180.413 159.485 181.446 160.419 183.01 160.786C183.551 160.916 184.219 161.015 184.625 161.397C185.973 162.663 185.591 164.423 183.921 165.103C182.475 165.69 177.069 167.401 180.014 169.844C180.643 170.364 181.572 170.316 182.117 171.08C183.046 172.389 182.264 173.351 181.079 174.106C176.071 177.295 172.903 181.771 171.573 187.534C171.453 188.062 171.329 189.08 171.2 190.59C171.002 192.923 170.407 195.162 169.417 197.307C169.37 197.404 169.373 197.498 169.426 197.59C169.76 198.178 169.888 198.654 169.808 199.019C169.19 201.812 168.556 204.601 167.907 207.384C167.464 209.282 166.514 210.101 164.531 210.438C154.346 212.17 146.679 216.282 141.306 225.243C141.254 225.335 141.238 225.442 141.26 225.545C141.282 225.648 141.341 225.74 141.426 225.802C141.511 225.864 141.616 225.893 141.721 225.883C141.826 225.874 141.923 225.826 141.995 225.749C144.305 223.141 145.304 221.543 148.92 223.438C154.172 226.191 159.676 226.224 165.079 223.646C167.894 222.301 171.002 224.834 169.636 227.794C164.494 238.96 159.348 250.125 154.196 261.289C153.167 263.518 151.341 265.208 148.902 263.383C147.948 262.667 147.37 261.265 146.778 260.179C146.345 259.389 145.806 258.588 145.162 257.776C137.901 248.595 133.511 238.194 131.993 226.573C131.981 226.481 131.94 226.396 131.877 226.328C131.814 226.261 131.732 226.215 131.641 226.196C131.551 226.178 131.458 226.189 131.374 226.226C131.29 226.264 131.221 226.328 131.175 226.407C130.727 227.18 130.877 227.677 131.049 228.727C132.665 238.557 136.363 247.526 142.142 255.634C143.721 257.848 144.704 259.318 145.093 260.044C148.39 266.204 149.856 272.793 149.491 279.81C149.046 288.419 144.407 295.479 135.284 296.309C132.813 296.535 130.466 296.331 128.242 295.695C125.956 295.042 125.402 292.868 125.974 290.714C126.702 287.977 128.375 286 130.994 284.785C133.058 283.825 134.409 284.635 136.241 285.347C138.671 286.295 140.335 285.137 141.069 282.797C141.932 280.044 140.858 276.344 138.036 274.991C134.505 273.294 131.037 273.547 127.71 275.457C125.078 276.97 123.05 280.165 119.735 277.253C116.261 274.2 112.961 273.601 108.214 273.827C108.092 273.831 108.029 273.772 108.025 273.652L108.013 273.231C108.009 273.089 107.941 273.043 107.808 273.096C105.55 273.966 103.948 275.435 103.001 277.502C100.827 282.252 103.462 288.629 109.736 286.605C111.439 286.054 112.976 285.002 113.957 287.399C114.468 288.642 114.946 289.899 115.392 291.168C115.984 292.844 115.139 293.776 113.545 294.236C105.904 296.441 98.1253 294.546 95.9716 285.997C93.3084 275.437 94.9689 265.767 100.953 256.987C101.017 256.893 101.008 256.806 100.926 256.726L100.219 256.052C100.147 255.984 100.138 255.909 100.192 255.826C104.171 249.592 107.463 243.012 110.07 236.087C110.711 234.385 113.106 227.355 111.216 226.164C111.18 226.141 111.138 226.128 111.095 226.126C111.053 226.124 111.01 226.133 110.971 226.151C110.933 226.17 110.9 226.199 110.875 226.234C110.851 226.27 110.836 226.311 110.831 226.353C109.815 236.16 106.076 243.583 101.166 251.856C101.155 251.875 101.139 251.89 101.12 251.901C101.1 251.911 101.078 251.916 101.056 251.915C101.034 251.913 101.013 251.906 100.995 251.894C100.976 251.881 100.962 251.864 100.953 251.844Z" stroke="#FEB801" stroke-width="0.2"/>
<path d="M115.786 159.445C118.415 159.905 120.683 160.549 123.342 159.685C124.282 159.381 125.948 158.689 128.338 157.61C131.784 156.052 135.635 155.511 139.892 155.988C140.023 156.002 140.1 155.944 140.124 155.814L140.286 154.924C140.302 154.831 140.264 154.783 140.172 154.779C133.699 154.505 128.314 156.016 122.593 158.879C121.895 159.228 120.596 159.207 119.883 158.903C114.131 156.464 109.21 154.626 102.677 154.743C102.398 154.749 102.277 154.891 102.316 155.167L102.586 157.123C102.595 157.193 102.63 157.257 102.684 157.304C102.737 157.35 102.807 157.376 102.878 157.375C107.19 157.301 111.319 158.12 115.265 159.833C115.4 159.891 115.489 159.85 115.533 159.709L115.575 159.574C115.609 159.47 115.679 159.427 115.786 159.445Z" stroke="#FEB801" stroke-width="0.2"/>
<path d="M79.0241 206.088C82.6739 206.517 86.1753 207.482 89.5283 208.982C89.5561 208.994 89.5864 209 89.6168 208.999C89.6472 208.997 89.677 208.989 89.7037 208.975C89.7305 208.96 89.7535 208.94 89.7711 208.915C89.7887 208.89 89.8003 208.861 89.805 208.831C90.1479 206.517 90.5069 204.183 90.8819 201.829C92.2436 193.296 95.8041 185.944 101.564 179.773C106.74 174.223 113.551 171.543 114.925 163.163C114.943 163.057 114.903 162.98 114.805 162.934C110.83 161.073 106.642 160.23 102.24 160.404C102.146 160.408 102.096 160.458 102.09 160.552C101.699 166.159 100.063 171.267 96.3476 175.568C93.147 179.28 89.1523 181.981 85.8073 185.492C82.1214 189.356 79.4162 193.849 77.6915 198.971C77.5572 199.37 77.5331 199.78 77.6193 200.201C78.0044 202.102 78.4155 204.012 78.8526 205.932C78.8727 206.024 78.9299 206.076 79.0241 206.088Z" stroke="#FEB801" stroke-width="0.2"/>
<path d="M112.949 199.591C112.723 199.444 112.471 199.387 112.194 199.419C112.082 199.433 112.042 199.495 112.074 199.606C113.014 202.752 113.516 205.965 113.578 209.243C113.599 210.486 113.331 211.451 113.951 212.727C114.019 212.865 114.097 212.871 114.185 212.745C115.864 210.362 113.873 202.235 113.006 199.666C112.997 199.635 112.976 199.608 112.949 199.591Z" stroke="#FEB801" stroke-width="0.2"/>
<path d="M128.66 212.576L130.185 199.6C130.186 199.598 130.186 199.596 130.185 199.594C130.185 199.592 130.184 199.59 130.183 199.589C130.182 199.588 130.18 199.586 130.179 199.586C130.177 199.585 130.175 199.584 130.173 199.584H130.17C129.807 199.542 129.407 199.935 129.06 200.675C128.712 201.415 128.445 202.442 128.317 203.531L127.755 208.317C127.691 208.857 127.664 209.396 127.674 209.903C127.685 210.41 127.733 210.876 127.815 211.272C127.898 211.669 128.014 211.99 128.156 212.215C128.299 212.441 128.465 212.568 128.645 212.588H128.648C128.651 212.588 128.654 212.587 128.657 212.585C128.659 212.583 128.66 212.58 128.66 212.576Z" stroke="#FEB801" stroke-width="0.2"/>
<path d="M91.7783 229.076C87.2421 230.381 83.1752 230.312 78.6722 229.054C78.5438 229.018 78.5077 229.061 78.5639 229.184L91.9197 257.938C91.9267 257.954 91.9379 257.967 91.952 257.977C91.9661 257.986 91.9826 257.992 91.9997 257.993C92.0168 257.994 92.0338 257.99 92.0488 257.982C92.0639 257.974 92.0765 257.962 92.0851 257.947L98.6036 247.151C98.6578 247.063 98.6628 246.973 98.6187 246.88C95.9074 241.173 93.6975 235.277 91.9889 229.193C91.9568 229.083 91.8866 229.043 91.7783 229.076Z" stroke="#FEB801" stroke-width="0.2"/>
<path d="M98.9375 285.639C100.658 292.034 106.545 292.765 112.131 291.541C112.261 291.513 112.302 291.437 112.254 291.313L111.553 289.432C111.532 289.378 111.491 289.334 111.438 289.309C111.385 289.285 111.325 289.283 111.271 289.303C104.445 291.764 99.2534 287.543 99.2895 280.76C99.3135 275.662 102.671 271.607 107.489 269.988C107.533 269.973 107.57 269.943 107.593 269.903C107.616 269.864 107.624 269.817 107.616 269.772C107.002 266.595 105.426 261.794 103.218 259.334C103.204 259.318 103.186 259.305 103.166 259.297C103.146 259.289 103.124 259.285 103.102 259.287C103.08 259.289 103.059 259.296 103.04 259.307C103.021 259.318 103.005 259.333 102.992 259.352C97.7664 267.49 96.4147 276.252 98.9375 285.639Z" stroke="#FEB801" stroke-width="0.2"/>
<path d="M224.365 26.3079C222.283 23.1434 217.816 25.1979 218.635 28.7925C220.04 34.9811 221.219 40.532 222.169 45.4452C223.39 51.7772 225.168 58.0249 228.513 63.5868C228.952 64.3208 229.354 64.8322 229.719 65.121C232.282 67.1514 235.504 64.8322 235.023 61.7309C233.338 50.8798 230.414 40.3776 226.251 30.2244C225.491 28.3694 224.862 27.0639 224.365 26.3079Z" stroke="#FEB801" stroke-width="0.2"/>
<path d="M204.157 113.602C203.387 116.36 206.488 118.734 208.97 117.257C217.678 112.068 225.472 104.235 226.269 93.5712C226.63 88.7372 221.339 87.6724 219.585 91.8566C216.37 99.5332 210.967 105.745 205.357 111.743C204.707 112.439 204.307 113.058 204.157 113.602Z" stroke="#FEB801" stroke-width="0.2"/>
<path d="M23.7779 27.6643C23.429 25.6429 21.2181 24.4818 19.3741 25.2819C18.4055 25.7001 17.9212 26.428 17.5031 27.3816C12.8065 38.0522 9.53973 49.0256 7.70281 60.3019C7.48623 61.6234 7.42406 62.5288 7.51631 63.0182C7.82614 64.6636 9.70919 65.8638 11.3817 65.3675C13.6437 64.6936 16.345 60.1214 17.2414 58.0819C17.7227 56.989 18.1669 55.4248 18.574 53.3893C20.1522 45.4901 21.8167 37.61 23.5674 29.7489C23.7819 28.7863 23.8521 28.0915 23.7779 27.6643Z" stroke="#FEB801" stroke-width="0.2"/>
<path d="M16.4804 92.1121C15.0365 102.439 24.918 111.815 32.733 116.733C33.6625 117.317 34.8898 117.798 35.8283 117.386C38.1264 116.378 39.08 113.848 37.1819 111.932C31.1387 105.832 26.4461 99.6504 22.3973 91.8354C21.3294 89.7719 19.0613 88.8544 17.2234 90.7435C16.7942 91.1826 16.5466 91.6389 16.4804 92.1121Z" stroke="#FEB801" stroke-width="0.2"/>
<path d="M222.192 131.483C222.118 131.071 221.963 130.677 221.737 130.324C221.511 129.972 221.217 129.667 220.873 129.428C220.529 129.189 220.141 129.019 219.731 128.93C219.322 128.841 218.899 128.833 218.486 128.907L210.617 130.323C210.204 130.397 209.811 130.552 209.458 130.779C209.105 131.005 208.801 131.299 208.561 131.643C208.322 131.987 208.153 132.375 208.064 132.784C207.975 133.194 207.967 133.617 208.041 134.03L208.092 134.314C208.166 134.726 208.321 135.12 208.548 135.473C208.774 135.825 209.068 136.13 209.412 136.369C209.756 136.609 210.144 136.778 210.553 136.867C210.963 136.956 211.386 136.964 211.798 136.89L219.668 135.474C220.08 135.4 220.474 135.245 220.827 135.018C221.179 134.792 221.484 134.498 221.723 134.154C221.962 133.81 222.131 133.422 222.221 133.013C222.31 132.603 222.318 132.18 222.243 131.768L222.192 131.483Z" stroke="#FEB801" stroke-width="0.2"/>
<path d="M22.1506 129.268C18.8718 130.516 19.4674 134.478 22.6469 135.38C24.6172 135.94 29.8542 137.077 31.7614 136.319C33.5421 135.612 34.4084 133.849 33.6113 132.074C32.5224 129.65 26.8462 129.253 24.4728 129.105C23.3859 129.037 22.6118 129.091 22.1506 129.268Z" stroke="#FEB801" stroke-width="0.2"/>
<path d="M20.3487 159.983C21.0977 169.804 30.4197 178.134 38.361 182.381C46.2151 186.583 54.5535 188.752 63.3491 189.901C65.3344 190.163 67.3618 189.552 67.6205 187.369C67.7248 186.474 67.4561 185.329 66.8144 183.933C64.2575 178.371 60.0131 175.95 54.2918 174.229C54.2033 174.203 54.1286 174.143 54.0837 174.062C54.0387 173.982 54.0271 173.888 54.0511 173.799C54.4933 172.202 56.0786 170.199 55.4559 168.58C54.6337 166.442 53.0685 165.574 50.7603 165.975C50.6752 165.99 50.5878 165.983 50.5063 165.954C50.4248 165.926 50.3519 165.877 50.2944 165.813C50.2369 165.748 50.1968 165.67 50.1778 165.586C50.1588 165.502 50.1615 165.414 50.1858 165.331C50.4174 164.534 52.2343 163.13 52.896 162.576C54.7881 160.988 55.0979 158.022 52.7667 156.686C51.389 155.898 48.6095 156.088 46.9521 155.964C46.9028 155.961 46.855 155.946 46.8119 155.922C46.7689 155.898 46.7317 155.864 46.703 155.824C46.6743 155.783 46.6548 155.737 46.6458 155.688C46.6369 155.639 46.6388 155.588 46.6513 155.54C46.8999 154.586 47.3672 153.734 48.053 152.986C49.4939 151.41 50.9047 149.837 49.5781 147.683C49.2312 147.118 48.4802 146.488 47.3251 145.794C38.9957 140.78 30.158 137.2 20.4871 136.328C17.7407 136.078 15.1478 138.34 16.1765 141.15C18.4787 147.436 19.8694 153.714 20.3487 159.983Z" stroke="#FEB801" stroke-width="0.2"/>
<path d="M189.886 162.832C190.855 163.552 191.689 164.383 192.389 165.326C192.442 165.396 192.472 165.482 192.475 165.57C192.477 165.658 192.452 165.745 192.402 165.819C192.353 165.892 192.281 165.949 192.198 165.981C192.115 166.013 192.024 166.018 191.938 165.996C189.426 165.347 186.815 167.061 186.939 169.817C186.996 171.104 187.916 172.593 188.452 173.856C188.47 173.901 188.479 173.948 188.479 173.996C188.479 174.044 188.469 174.092 188.45 174.136C188.43 174.18 188.403 174.219 188.368 174.252C188.333 174.284 188.292 174.31 188.247 174.326C187.251 174.687 186.081 174.921 185.26 175.222C180.485 176.979 177.17 180.203 175.315 184.896C174.539 186.86 174.66 189.029 176.865 189.787C177.548 190.022 178.585 190.033 179.975 189.82C195.644 187.441 216.758 180.498 221.501 162.949C221.76 161.991 222.023 160.376 222.289 158.106C222.953 152.479 224.236 146.993 226.137 141.649C227.138 138.827 225.613 136.292 222.509 136.403C212.612 136.761 203.224 141.05 194.814 145.93C192.928 147.024 191.821 148.258 192.464 150.457C193.039 152.421 195.235 153.29 195.857 155.441C195.872 155.492 195.875 155.545 195.866 155.597C195.857 155.649 195.837 155.699 195.806 155.742C195.775 155.785 195.735 155.82 195.689 155.846C195.643 155.872 195.591 155.886 195.539 155.889C193.752 155.979 190.873 155.937 189.429 157.129C187.462 158.753 187.937 161.379 189.886 162.832Z" stroke="#FEB801" stroke-width="0.2"/>
<path d="M73.7028 217.486C73.1674 219.489 73.5223 221.309 75.6851 221.986C79.722 223.252 86.4811 225.255 90.5991 223.95C93.7606 222.948 94.3472 219.414 92.04 217.176C89.1252 214.348 83.2474 212.615 79.3851 211.605C74.9482 210.447 74.6413 213.966 73.7028 217.486Z" stroke="#FEB801" stroke-width="0.2"/>
<path d="M149.753 222.545C152.547 226.079 161.43 223.64 165.136 222.434C168.34 221.393 169.39 219.681 168.484 216.333C167.401 212.321 165.969 210.91 161.662 212.068C158.531 212.91 155.534 214.09 152.671 215.608C150.06 216.995 147.617 219.844 149.753 222.545Z" stroke="#FEB801" stroke-width="0.2"/>
<path d="M81.3042 305.929C81.9901 309.611 83.1993 313.443 85.317 316.406C87.7956 319.874 91.4866 322.431 95.012 324.75C97.4696 326.366 98.9225 326.125 100.881 324.067C101.855 323.042 102.917 323.171 103.865 324.134C107.372 327.698 108.849 332.018 108.807 336.969C108.741 344.787 114.564 352.133 119.826 357.502C121.754 359.469 123.826 358.832 125.354 356.903C129.379 351.823 132.351 346.237 133.458 339.842C133.48 339.713 133.612 338.443 133.852 336.03C134.231 332.216 136.195 325.914 139.444 323.487C141.652 321.835 142.934 328.342 147.238 325.138C154.241 319.925 159.448 316.433 160.886 307.788C160.97 307.288 161.141 306.798 161.283 306.32C161.295 306.277 161.322 306.24 161.36 306.217C161.398 306.193 161.444 306.185 161.487 306.193C164.697 306.771 167.046 307.734 168.364 303.892C169.928 299.344 171.82 295.767 174.293 291.141C175.263 289.322 175.953 287.912 176.362 286.912C179.581 279.046 180.026 269.769 179.349 261.331C178.624 252.262 176.768 243.809 174.217 235.107C173.132 231.401 169.444 231.296 167.819 234.568C160.401 249.506 152.632 264.697 150.153 281.434C149.326 287.026 147.885 291.83 143.078 295.238C140.771 296.874 139.706 297.596 140.229 300.641C141.228 306.467 138.1 309.785 132.535 310.633C129.28 311.127 125.093 310.703 122.157 310.742C115.831 310.823 111.313 311.226 106.316 309.659C102.18 308.362 101.588 304.897 102.159 301.068C102.466 299.007 102.466 297.632 100.751 296.483C96.9011 293.905 94.1547 291.129 92.8793 286.599C92.6567 285.807 92.4241 284.126 92.1814 281.557C91.4595 273.89 89.435 266.58 86.5052 259.595C83.1362 251.564 79.0512 242.935 74.2503 233.708C73.2125 231.714 70.4511 231.368 69.0764 233.07C68.7636 233.457 68.4377 234.224 68.0988 235.371C62.8618 252.99 59.5529 274.591 68.544 291.592C70.5554 295.396 72.3633 299.297 73.9676 303.294C74.5531 304.754 75.0805 305.711 75.5498 306.166C76.757 307.337 78.2741 307.296 80.101 306.043C80.3958 305.842 80.7297 305.747 81.1027 305.757C81.1507 305.759 81.1967 305.777 81.2332 305.808C81.2698 305.839 81.2948 305.882 81.3042 305.929Z" stroke="#FEB801" stroke-width="0.2"/>
<path d="M105.39 278.958C104.397 281.942 106.9 284.866 109.977 283.651C110.807 283.323 111.559 282.92 112.432 282.947C114.928 283.031 117.031 286.782 117.585 289.065C117.786 289.896 117.906 290.816 118.303 291.517C119.958 294.459 124.184 293.731 124.96 290.413C125.89 286.46 128.895 282.917 133.308 283.419C134.517 283.558 135.564 284.25 136.767 284.192C139.038 284.081 140.326 281.843 140.097 279.765C139.832 277.319 138.319 276.007 135.997 275.379C132.222 274.359 129.773 275.328 126.961 277.617C124.512 279.608 122.746 280.294 119.895 278.471C116.772 276.477 113.978 274.783 110.134 275.355C107.811 275.701 106.133 276.717 105.39 278.958Z" stroke="#FEB801" stroke-width="0.2"/>
<path d="M105.221 307.73C107.79 309.773 109.785 309.4 112.823 309.421C118.438 309.461 124.052 309.496 129.665 309.526C134.505 309.553 139.095 308.025 139.312 302.379C139.411 299.837 137.874 298.439 135.507 298.02C132.404 297.469 129.297 296.95 126.185 296.462C124.572 296.21 122.689 296.989 121.173 297.491C121.08 297.522 120.98 297.518 120.89 297.479C116.544 295.641 111.069 297.247 106.617 298.072C102.174 298.893 102.183 305.315 105.221 307.73Z" stroke="#FEB801" stroke-width="0.2"/>
<path d="M225.093 60.7681C224.94 60.5516 224.535 60.3179 223.878 60.0673C223.769 60.0272 223.724 59.95 223.742 59.8356C223.889 58.8811 223.817 58.1852 223.529 57.748C221.441 54.5996 219.345 51.4552 217.242 48.3147C214.965 44.9156 210.266 47.2108 211.313 51.1935C212.005 53.8325 212.71 56.4686 213.428 59.1017C214.02 61.2795 215.593 61.5924 217.57 61.9624C217.708 61.9884 217.765 62.0696 217.741 62.206C217.713 62.3644 217.743 62.5138 217.831 62.6542C217.864 62.7069 217.881 62.7679 217.879 62.8298C217.878 62.8917 217.858 62.9519 217.823 63.003C217.788 63.054 217.739 63.0937 217.682 63.1173C217.624 63.1408 217.561 63.1471 217.501 63.1355C214.432 62.572 211.562 61.6916 208.888 60.4944C205.08 58.7888 201.901 64.5282 206.229 66.6038C212.089 69.4103 218.277 72.4455 222.253 77.2223C230.838 87.537 228.685 101.359 219.573 110.455C212.405 117.618 204.244 121.645 194.435 124.019C186.448 125.953 178.711 127.625 171.279 131.292C168.469 132.679 167.058 134.589 167.191 137.817C167.192 137.843 167.185 137.869 167.17 137.89C167.156 137.912 167.134 137.928 167.109 137.936C167.084 137.943 167.058 137.943 167.033 137.934C167.009 137.925 166.988 137.908 166.974 137.886C164.838 134.553 163.773 130.615 162.922 126.774C162.489 124.815 161.886 121.371 161.114 116.441C160.122 110.125 158.431 104.439 155.375 98.7992C154.054 96.3626 151.904 93.7035 150.469 91.3331C148.909 88.7582 147.72 85.8885 146.904 82.724C146.601 81.5529 146.285 80.7447 145.954 80.2995C144.122 77.8359 140.013 79.2287 140.064 82.336C140.248 93.5401 142.78 104.396 147.659 114.904C148.327 116.344 149.494 119.552 151.161 124.527C155.023 136.063 153.826 146.143 146.282 155.877C145.872 156.404 145.812 157.986 145.89 158.807C146.304 163.181 147.505 167.332 149.494 171.261C149.542 171.355 149.611 171.374 149.702 171.318L150.971 170.56C151.008 170.537 151.053 170.53 151.096 170.539C151.139 170.549 151.177 170.574 151.203 170.611C152.971 173.147 154.647 174.202 156.795 175.842C161.321 179.293 165.013 183.469 167.87 188.37C168.601 189.622 168.051 192.037 167.651 193.349C167.615 193.467 167.569 193.47 167.512 193.358C165.387 189.012 162.637 185.141 159.264 181.744C157.547 180.014 155.246 178.233 153.14 176.564C146.624 171.396 145.196 164.426 144.435 156.662C144.423 156.53 144.35 156.457 144.218 156.443L143.255 156.337C143.232 156.335 143.21 156.327 143.19 156.315C143.171 156.303 143.154 156.287 143.14 156.268C143.127 156.249 143.119 156.227 143.114 156.205C143.11 156.182 143.111 156.158 143.117 156.136L143.364 155.203C143.394 155.085 143.47 155.034 143.592 155.05L144.862 155.206C144.952 155.218 145.027 155.189 145.087 155.119C153.323 145.551 153.901 134.508 149.476 122.936C145.896 113.575 142.025 104.148 139.937 94.3141C138.401 87.0807 138.476 79.9095 140.16 72.8004C140.951 69.4554 142.582 64.8712 145.457 62.8768C145.505 62.8438 145.559 62.822 145.617 62.8132C145.674 62.8043 145.732 62.8086 145.788 62.8257C145.843 62.8428 145.894 62.8723 145.936 62.9119C145.978 62.9515 146.011 63.0002 146.032 63.0543C146.26 63.6539 146.363 64.3407 146.339 65.1148C146.098 72.647 146.73 81.0485 150.081 87.8678C151.212 90.175 153.182 92.7199 154.463 94.7683C160.356 104.184 162.793 115.5 164.086 126.371C164.287 128.05 164.559 129.173 164.901 129.74C165.933 131.446 168.021 131.777 169.775 130.826C173.809 128.636 178.047 126.956 182.487 125.785C185.988 124.861 189.225 124.581 192.245 122.169C200.306 115.726 207.827 108.238 213.777 99.8008C217.137 95.0391 220.033 89.426 221.348 83.6596C222.043 80.6094 222.031 78.245 219.636 76.2326C211.719 69.5848 201.471 65.2863 192.194 60.9065C189.906 59.8256 188.154 58.858 186.939 58.0037C184.442 56.244 177.454 50.0865 178.023 46.7145C178.083 46.3595 178.286 46.2281 178.633 46.3204C179.388 46.5249 180.167 46.7385 180.895 47.0814C189.342 51.0762 197.891 54.8342 206.542 58.3557C206.797 58.46 207.178 58.48 207.685 58.4158C210.432 58.0759 211.166 55.7326 210.516 53.3713C208.571 46.2963 206.601 39.2334 204.608 32.1825C204.59 32.1187 204.585 32.052 204.593 31.9862C204.602 31.9204 204.623 31.8569 204.656 31.7995C204.69 31.742 204.734 31.6917 204.788 31.6516C204.841 31.6115 204.901 31.5823 204.966 31.5658L205.237 31.4996C205.339 31.4736 205.425 31.5006 205.495 31.5809C208.371 34.8877 211.133 38.2848 213.783 41.7722C214.942 43.2963 216.354 43.6723 218.021 42.9002C219.814 42.07 219.994 40.3644 219.621 38.4874C217.112 25.8956 214.375 13.5144 209.752 1.44002C209.74 1.40871 209.736 1.37492 209.741 1.34179C209.746 1.30866 209.759 1.27726 209.779 1.25051C209.985 0.971765 210.234 0.925641 210.525 1.11214C210.737 1.24851 211.109 1.67766 211.641 2.39959C228.063 24.6753 236.696 49.7035 237.54 77.484C237.634 80.5522 238.759 82.8323 239.646 85.4704C244.94 101.212 236.839 115.121 224.362 124.13C224.28 124.19 224.19 124.204 224.094 124.172L223.09 123.826C222.977 123.786 222.968 123.729 223.062 123.655C231.184 117.166 239.002 108.981 240.169 98.0832C240.637 93.7175 240.087 89.5383 238.521 85.5456C235.2 77.0829 230.724 68.8238 225.093 60.7681ZM224.365 26.3077C222.283 23.1432 217.816 25.1977 218.635 28.7924C220.04 34.981 221.218 40.5319 222.169 45.445C223.39 51.777 225.168 58.0248 228.513 63.5867C228.952 64.3207 229.354 64.832 229.719 65.1208C232.282 67.1513 235.504 64.832 235.023 61.7307C233.338 50.8796 230.414 40.3775 226.251 30.2242C225.491 28.3692 224.862 27.0637 224.365 26.3077ZM204.157 113.602C203.387 116.36 206.488 118.734 208.97 117.257C217.678 112.068 225.472 104.235 226.269 93.5711C226.63 88.7372 221.339 87.6723 219.585 91.8565C216.369 99.5331 210.967 105.745 205.357 111.743C204.707 112.439 204.307 113.058 204.157 113.602Z" fill="#FEB801"/>
<path d="M92.022 175.752C88.9658 178.594 85.4133 181.437 83.1392 183.907C80.0368 187.276 77.6033 191.094 75.8386 195.361C75.8299 195.382 75.8151 195.4 75.7962 195.412C75.7773 195.424 75.7552 195.43 75.7327 195.429C75.7103 195.429 75.6885 195.421 75.6704 195.408C75.6522 195.395 75.6385 195.376 75.631 195.355C75.1738 194.005 73.8532 189.613 74.5391 188.491C78.1407 182.587 82.7832 177.658 88.4664 173.703C89.1804 173.206 90.1199 172.19 91.285 170.656C91.3632 170.552 91.4575 170.535 91.5678 170.605L93.4177 171.772C93.4396 171.786 93.4644 171.794 93.4901 171.797C93.5158 171.799 93.5417 171.796 93.5655 171.786C93.5893 171.777 93.6105 171.762 93.6271 171.743C93.6438 171.723 93.6556 171.7 93.6614 171.676C94.6962 167.428 95.7199 163.185 96.7326 158.946C97.1477 157.204 96.6424 156.181 95.5083 154.704C88.5958 145.704 87.3414 135.486 91.0835 124.951C92.9154 119.793 95.1083 114.787 97.0394 109.667C100.102 101.558 101.916 93.2855 102.367 84.6072C102.466 82.6881 102.812 81.0667 101.164 79.7913C100.307 79.1295 99.3687 78.93 98.3479 79.1927C96.6935 79.6138 96.1641 80.793 95.7279 82.4805C94.8315 85.9338 93.3886 89.1484 91.3993 92.1244C88.8725 95.9085 86.2405 99.2655 84.7906 103.666C82.33 111.12 80.5231 118.725 79.37 126.48C78.7925 130.354 78.0525 134.607 75.5167 137.615C75.5019 137.632 75.4819 137.644 75.4598 137.649C75.4376 137.653 75.4146 137.65 75.3944 137.64C75.3741 137.63 75.3577 137.614 75.3478 137.594C75.3378 137.573 75.3348 137.55 75.3392 137.528C75.7002 135.777 75.2871 134.406 74.0999 133.413C72.7423 132.278 70.782 131.1 68.2191 129.879C62.221 127.018 54.4632 125.559 48.1373 124.257C41.6489 122.924 36.1471 120.605 30.6183 116.721C24.178 112.194 18.6311 106.792 16.0592 99.3618C13.358 91.5739 15.0004 83.4852 20.3367 77.2555C23.4019 73.6759 27.5922 71.0078 31.9178 68.7186C34.8276 67.1785 37.3403 65.9813 39.456 65.127C40.6171 64.6577 41.4744 64.1193 41.8655 62.886C42.4791 60.9578 40.9781 58.9033 38.9717 58.7469C36.7938 58.5754 34.971 60.6269 32.8563 60.5487C31.3924 60.4966 29.9264 60.5166 28.4585 60.6089C28.3342 60.6169 28.2971 60.5647 28.3472 60.4524C29.4963 57.9016 30.1069 54.8033 30.8319 52.09C31.0665 51.2157 31.1708 50.5629 31.1447 50.1318C30.9973 47.6351 28.2991 46.2604 26.1483 47.4937C25.7292 47.7323 25.298 48.1815 24.8548 48.8413C21.9992 53.0827 20.1151 55.9734 19.2027 57.5136C18.8938 58.0309 18.8176 58.7198 18.9741 59.5801C18.9941 59.6904 18.95 59.7596 18.8417 59.7877C18.0095 60.0042 17.3677 60.4605 16.9165 61.1563C11.7286 69.1357 7.5825 76.9517 4.47817 84.6042C3.7422 86.4211 3.18972 88.4856 2.82073 90.7978C0.573701 104.924 8.8519 115.626 19.3771 123.676C19.3965 123.69 19.4116 123.71 19.4208 123.732C19.43 123.754 19.4328 123.779 19.4291 123.803C19.4254 123.827 19.4152 123.849 19.3997 123.867C19.3842 123.886 19.3639 123.9 19.341 123.908L18.3875 124.239C18.2892 124.273 18.197 124.259 18.1107 124.196C9.73327 117.949 2.55301 109.03 1.22344 98.3511C0.659932 93.8089 1.16228 89.6518 2.73049 85.8796C3.58879 83.8181 4.22048 81.9 4.62557 80.1252C4.87424 79.0303 5.0477 77.3307 5.14596 75.0265C6.31109 47.7393 15.0435 23.3108 31.3432 1.74097C31.642 1.34591 32.0441 1.29578 32.5495 1.59057C32.6297 1.6387 32.6527 1.70588 32.6187 1.79211C27.896 13.671 25.4234 25.5077 22.8454 38.8726C22.3461 41.4685 24.3435 44.0103 27.0116 42.7409C27.6152 42.4562 28.4224 41.7573 29.4331 40.6443C31.7112 38.1336 33.861 35.5146 35.8824 32.7872C36.4118 32.0713 36.9082 31.7073 37.7624 31.6442C37.7864 31.6422 37.8105 31.6462 37.8327 31.6557C37.8548 31.6653 37.8744 31.6801 37.8897 31.699C37.905 31.7178 37.9157 31.7402 37.9207 31.7641C37.9258 31.7881 37.9252 31.813 37.9189 31.8367C35.8974 39.2706 33.7908 46.6965 31.5989 54.1144C31.3162 55.08 31.3222 56.0667 31.8997 56.936C33.0147 58.6125 34.6441 58.9995 36.7878 58.0971C45.2184 54.5456 53.5829 50.8447 61.8811 46.9943C62.6271 46.6474 63.2468 46.4439 63.7401 46.3837C64.3157 46.3135 64.5252 46.5572 64.3688 47.1147C62.4256 54.0543 55.1611 58.9334 49.0788 61.9655C42.4671 65.2623 35.5936 68.0959 29.1895 71.7808C27.7737 72.597 25.7923 73.9737 23.2455 75.9109C20.5593 77.9564 20.2374 79.9929 20.8932 83.3529C22.2258 90.1992 26.1242 96.9493 30.5491 102.577C35.6207 109.029 41.313 114.866 47.6259 120.09C50.7513 122.677 52.2583 123.977 55.8139 124.741C61.5853 125.978 67.1142 127.903 72.4004 130.516C75.3182 131.957 77.5953 131.253 78.1397 127.839C80.11 115.548 82.0442 103.221 89.3749 92.8523C90.6363 91.0676 91.4595 89.8162 91.8445 89.0983C95.6317 82.0504 96.4138 73.0201 96.2062 65.1811C96.1821 64.2516 96.2904 63.6049 96.7597 62.889C96.781 62.8565 96.809 62.8289 96.8419 62.8082C96.8748 62.7875 96.9118 62.7741 96.9503 62.769C96.9889 62.7639 97.0281 62.7671 97.0652 62.7785C97.1024 62.7898 97.1367 62.809 97.1658 62.8348C100.598 65.9331 102.307 70.5475 102.974 75.0356C104.527 85.4705 102.668 96.7117 99.4098 106.662C98.1524 110.495 96.3055 114.655 94.648 118.616C89.3147 131.368 87.1489 144.633 98.0321 155.342C98.1103 155.418 98.2046 155.449 98.3149 155.435L99.0518 155.339C99.1561 155.325 99.2233 155.368 99.2534 155.468C99.858 157.475 99.2293 158.798 99.0609 160.603C98.4833 166.74 96.6213 171.474 92.022 175.752ZM23.7779 27.6645C23.429 25.6431 21.2181 24.482 19.3741 25.2821C18.4055 25.7002 17.9212 26.4282 17.5031 27.3817C12.8065 38.0524 9.53975 49.0258 7.70282 60.302C7.48624 61.6236 7.42408 62.529 7.51632 63.0183C7.82615 64.6637 9.7092 65.864 11.3817 65.3676C13.6438 64.6938 16.345 60.1216 17.2414 58.0821C17.7227 56.9892 18.1669 55.425 18.574 53.3895C20.1522 45.4903 21.8167 37.6102 23.5674 29.7491C23.7819 28.7865 23.8521 28.0916 23.7779 27.6645ZM16.4804 92.1124C15.0365 102.439 24.918 111.815 32.733 116.733C33.6625 117.317 34.8897 117.798 35.8283 117.386C38.1264 116.378 39.08 113.849 37.1819 111.933C31.1387 105.832 26.4461 99.6506 22.3972 91.8356C21.3294 89.7721 19.0613 88.8546 17.2234 90.7437C16.7942 91.1829 16.5465 91.6391 16.4804 92.1124Z" fill="#FEB801"/>
<path d="M79.0241 206.088C78.9299 206.076 78.8727 206.024 78.8526 205.932C78.4155 204.012 78.0044 202.102 77.6193 200.201C77.5331 199.78 77.5572 199.37 77.6915 198.971C79.4162 193.849 82.1214 189.356 85.8073 185.492C89.1523 181.981 93.147 179.28 96.3476 175.568C100.063 171.267 101.699 166.159 102.09 160.552C102.096 160.458 102.146 160.408 102.24 160.404C106.642 160.23 110.83 161.073 114.805 162.934C114.903 162.98 114.943 163.057 114.925 163.163C113.551 171.543 106.74 174.223 101.564 179.773C95.8041 185.944 92.2436 193.296 90.8819 201.829C90.5069 204.183 90.1479 206.517 89.805 208.831C89.8003 208.861 89.7887 208.89 89.7711 208.915C89.7535 208.94 89.7305 208.96 89.7037 208.975C89.677 208.989 89.6472 208.997 89.6168 208.999C89.5864 209 89.5561 208.994 89.5283 208.982C86.1753 207.482 82.6739 206.517 79.0241 206.088Z" fill="#FEB801"/>
<path d="M78.6722 229.054C83.1752 230.312 87.2421 230.381 91.7783 229.076C91.8866 229.043 91.9568 229.083 91.9889 229.193C93.6975 235.277 95.9074 241.173 98.6187 246.88C98.6628 246.973 98.6578 247.063 98.6036 247.151L92.0851 257.947C92.0765 257.962 92.0639 257.974 92.0488 257.982C92.0338 257.99 92.0168 257.994 91.9997 257.993C91.9826 257.992 91.9661 257.986 91.952 257.977C91.9379 257.967 91.9267 257.954 91.9197 257.938L78.5639 229.184C78.5077 229.061 78.5438 229.018 78.6722 229.054Z" fill="#FEB801"/>
<path d="M112.131 291.541C106.545 292.765 100.658 292.034 98.9375 285.639C96.4147 276.252 97.7664 267.49 102.992 259.352C103.005 259.333 103.021 259.318 103.04 259.307C103.059 259.296 103.08 259.289 103.102 259.287C103.124 259.285 103.146 259.289 103.166 259.297C103.186 259.305 103.204 259.318 103.218 259.334C105.426 261.794 107.002 266.595 107.616 269.772C107.624 269.817 107.616 269.864 107.593 269.903C107.57 269.943 107.533 269.973 107.489 269.988C102.671 271.607 99.3135 275.662 99.2895 280.76C99.2534 287.543 104.445 291.764 111.271 289.303C111.325 289.283 111.385 289.285 111.438 289.309C111.491 289.334 111.532 289.378 111.553 289.432L112.254 291.313C112.302 291.437 112.261 291.513 112.131 291.541Z" fill="#FEB801"/>
<path d="M100.953 251.844C100.962 251.864 100.976 251.881 100.995 251.894C101.013 251.906 101.034 251.913 101.056 251.915C101.078 251.916 101.1 251.911 101.12 251.901C101.139 251.89 101.155 251.875 101.166 251.856C106.076 243.583 109.815 236.16 110.831 226.353C110.836 226.311 110.851 226.27 110.875 226.234C110.9 226.199 110.933 226.17 110.971 226.151C111.01 226.133 111.053 226.124 111.095 226.126C111.138 226.128 111.18 226.141 111.216 226.164C113.106 227.355 110.711 234.385 110.07 236.087C107.463 243.012 104.171 249.592 100.192 255.826C100.138 255.909 100.147 255.984 100.219 256.052L100.926 256.726C101.008 256.806 101.017 256.893 100.953 256.987C94.9689 265.767 93.3084 275.437 95.9716 285.997C98.1253 294.546 105.904 296.441 113.545 294.236C115.139 293.776 115.984 292.844 115.392 291.168C114.946 289.899 114.468 288.642 113.957 287.399C112.976 285.002 111.439 286.054 109.736 286.605C103.462 288.629 100.827 282.252 103.001 277.502C103.948 275.435 105.55 273.966 107.808 273.096C107.941 273.043 108.009 273.089 108.013 273.231L108.025 273.652C108.029 273.772 108.092 273.831 108.214 273.827C112.961 273.601 116.261 274.2 119.735 277.253C123.05 280.165 125.078 276.97 127.71 275.457C131.037 273.547 134.505 273.294 138.036 274.991C140.858 276.344 141.932 280.044 141.069 282.797C140.335 285.137 138.671 286.295 136.241 285.347C134.409 284.635 133.058 283.825 130.994 284.785C128.375 286 126.702 287.977 125.974 290.714C125.402 292.868 125.956 295.042 128.242 295.695C130.466 296.331 132.813 296.535 135.284 296.309C144.407 295.479 149.046 288.419 149.491 279.81C149.856 272.793 148.39 266.204 145.093 260.044C144.704 259.318 143.721 257.848 142.142 255.634C136.363 247.526 132.665 238.557 131.049 228.727C130.877 227.677 130.727 227.18 131.175 226.407C131.221 226.328 131.29 226.264 131.374 226.226C131.458 226.189 131.551 226.178 131.641 226.196C131.732 226.215 131.814 226.261 131.877 226.328C131.94 226.396 131.981 226.481 131.993 226.573C133.511 238.194 137.901 248.595 145.162 257.776C145.806 258.588 146.345 259.389 146.778 260.179C147.37 261.265 147.948 262.667 148.902 263.383C151.341 265.208 153.167 263.518 154.196 261.289C159.348 250.125 164.494 238.96 169.636 227.794C171.002 224.834 167.894 222.301 165.079 223.646C159.676 226.224 154.172 226.191 148.92 223.438C145.304 221.543 144.305 223.141 141.995 225.749C141.923 225.826 141.826 225.874 141.721 225.883C141.616 225.893 141.511 225.864 141.426 225.802C141.341 225.74 141.282 225.648 141.26 225.545C141.238 225.442 141.254 225.335 141.306 225.243C146.679 216.282 154.346 212.17 164.531 210.438C166.514 210.101 167.464 209.282 167.907 207.384C168.556 204.601 169.19 201.812 169.808 199.019C169.888 198.654 169.76 198.178 169.426 197.59C169.373 197.498 169.37 197.404 169.417 197.307C170.407 195.162 171.002 192.923 171.2 190.59C171.329 189.08 171.453 188.062 171.573 187.534C172.903 181.771 176.071 177.295 181.079 174.106C182.264 173.351 183.046 172.389 182.117 171.08C181.572 170.316 180.643 170.364 180.014 169.844C177.069 167.401 182.475 165.69 183.921 165.103C185.591 164.423 185.973 162.663 184.625 161.397C184.219 161.015 183.551 160.916 183.01 160.786C181.446 160.419 180.413 159.485 179.912 157.983C179.88 157.887 179.898 157.799 179.966 157.721C181.5 156.007 183.38 154.902 185.606 154.406C187.742 153.934 188.804 151.455 186.83 150.087C186.703 149.999 186.609 149.87 186.565 149.721C186.522 149.572 186.53 149.412 186.59 149.268C187.432 147.226 190.082 145.563 191.917 144.435C195.166 142.439 198.533 140.665 202.018 139.113C203.558 138.43 202.74 135.516 200.345 136.132C195.017 137.508 190.018 139.233 185.347 141.306C181.726 142.918 177.535 145.37 175.033 148.691C174.688 149.15 173.849 150.581 172.518 152.983C168.423 160.373 162.751 166.337 155.501 170.875C155.389 170.946 155.29 170.93 155.203 170.827L153.763 169.071C153.68 168.97 153.694 168.886 153.805 168.818C159.799 165.08 164.709 160.274 168.535 154.4C170.313 151.672 171.522 148.285 173.736 145.83C178.672 140.368 186.725 137.943 193.433 135.564C201.521 132.694 209.643 129.93 217.801 127.27C218.493 127.045 218.968 126.663 219.543 126.245C219.627 126.185 219.719 126.166 219.82 126.188C220.454 126.335 220.93 126.332 221.468 126.747C227.343 131.304 229.055 134.935 226.94 142.314C225.532 147.223 224.398 152.12 223.682 157.231C223.348 159.637 223.117 162.254 222.476 164.414C218.135 179.039 199.596 187.345 186.15 189.926C185.404 190.07 183.763 190.366 181.226 190.813C174.759 191.953 171.492 197.846 169.943 203.621C168.952 207.313 168.855 211.036 169.651 214.79C169.808 215.524 170.365 217.45 171.324 220.569C172.252 223.583 173.191 226.592 174.139 229.596C178.615 243.788 181.674 259.213 180.324 274.151C179.788 280.071 178.672 285.269 176.028 290.389C174.647 293.066 173.269 295.745 171.895 298.427C169.142 303.797 167.512 309.569 167.007 315.744C167.001 315.823 166.975 315.9 166.931 315.966C166.888 316.032 166.828 316.087 166.757 316.124C166.687 316.161 166.608 316.18 166.528 316.179C166.448 316.177 166.37 316.156 166.3 316.117C165.295 315.551 164.504 314.499 163.44 314.198C161.43 313.626 160.434 314.625 159.189 316.228C156.69 319.443 153.732 322.156 150.315 324.368C147.404 326.257 145.493 328.444 144.179 331.693C144.133 331.807 144.053 331.842 143.938 331.798C142.699 331.338 142.419 329.085 141.213 328.233C139.79 327.232 137.624 327.478 136.556 328.871C136.211 329.32 135.954 330.047 135.783 331.052C135.302 333.876 134.967 336.718 134.779 339.58C134.427 344.922 130.781 351.495 127.656 355.742C126.242 357.667 125.529 358.711 124.199 359.984C121.985 362.104 118.965 358.738 117.615 357.072C112.528 350.794 107.483 344.522 107.474 336.208C107.471 333.188 107.396 331.554 106.187 329.244C105.158 327.286 102.863 326.663 101.145 328.167C100.201 328.998 99.6053 330.637 98.751 331.774C98.7276 331.805 98.6965 331.83 98.6607 331.845C98.6249 331.86 98.5857 331.866 98.547 331.861C98.5084 331.857 98.4716 331.842 98.4404 331.819C98.4091 331.796 98.3845 331.765 98.369 331.729C97.5588 329.804 96.4579 328.093 95.0661 326.597C92.7379 324.094 89.2275 322.569 86.6826 320.058C85.5757 318.969 84.578 317.789 83.6896 316.52C82.2879 314.52 81.2381 313.115 78.7624 314.05C77.7908 314.417 76.9997 315.506 76.0251 316.111C75.9208 316.175 75.8456 316.15 75.7995 316.036C75.5989 315.544 75.4706 315.008 75.4144 314.426C74.7988 308.194 72.9348 302.318 69.8224 296.799C67.4822 292.651 64.5433 287.014 63.3641 281.599C58.7678 260.468 65.5089 238.885 71.7085 218.902C74.6474 209.427 73.4802 200.3 66.7181 193.045C65.8127 192.07 64.7568 191.998 63.698 191.33C63.2107 191.023 62.8467 190.857 62.6061 190.831C45.5323 188.924 20.1201 179.184 18.8357 158.431C18.5168 153.29 16.8684 148.354 15.5659 143.406C15.1027 141.649 14.836 139.872 14.7658 138.075C14.5462 132.547 17.1482 129.881 21.2421 126.552C21.4146 126.411 21.8849 126.316 22.6529 126.266C22.7478 126.258 22.8422 126.286 22.9176 126.344C23.4892 126.787 23.8902 127.045 24.1209 127.117C35.0542 130.614 45.8953 134.375 56.6441 138.397C61.5773 140.244 66.4173 142.756 69.5908 146.886C70.1042 147.552 70.778 148.687 71.6122 150.291C75.5949 157.942 81.2832 164.126 88.677 168.845C88.7023 168.861 88.7238 168.882 88.7399 168.907C88.756 168.933 88.7663 168.961 88.7701 168.991C88.7738 169.02 88.7709 169.05 88.7616 169.079C88.7523 169.107 88.7367 169.133 88.7161 169.155L87.1278 170.815C87.0637 170.883 86.9915 170.892 86.9113 170.842C79.6648 166.24 74.0127 160.191 69.8916 152.692C69.1185 151.281 68.3425 149.834 67.3197 148.643C61.2254 141.541 50.5949 138.274 41.8865 136.144C39.6575 135.6 38.9175 138.298 41.1345 139.36C46.6954 142.023 51.5193 144.845 55.6063 147.825C57.2728 149.04 52.866 153.035 56.238 154.241C58.464 155.035 60.5877 155.694 62.1519 157.52C64.068 159.761 58.4489 160.856 57.6879 161.749C56.626 162.985 57.1946 164.438 58.6053 165.052C59.8236 165.578 62.9219 166.46 63.1806 168.03C63.5386 170.187 61.1261 170.024 60.4012 171.432C59.7274 172.74 60.5425 173.571 61.6645 174.275C67.3859 177.854 70.6196 183.642 71.4017 190.311C71.7727 193.481 72.6701 196.497 74.0939 199.359C74.4127 199.999 74.6333 200.631 74.7557 201.257C75.3813 204.445 75.8626 206.592 76.1995 207.697C76.4703 208.588 77.5141 208.927 78.4676 209.039C82.0933 209.468 85.5636 210.454 88.8785 211.996C88.9668 212.038 88.9969 212.105 88.9688 212.197L88.7221 213.009C88.6997 213.087 88.7029 213.169 88.7311 213.244C88.7593 213.319 88.8111 213.382 88.8785 213.425C92.6707 215.777 95.9966 218.666 98.8563 222.091C98.906 222.152 98.9447 222.223 98.9706 222.298C99.1732 222.916 99.0288 223.161 98.5374 223.032C95.4512 222.218 93.0036 223.063 91.1948 225.568C91.1326 225.654 91.1015 225.751 91.1015 225.857V225.968C91.1015 226.079 91.0484 226.15 90.9421 226.182C86.0369 227.624 81.3273 227.245 76.8132 225.045C74.6714 224.001 73.5284 225.493 74.4549 227.493C79.6949 238.812 84.954 250.12 90.2322 261.418C91.1587 263.401 92.6025 262.904 93.5621 261.313C95.75 257.689 97.9388 254.075 100.129 250.469C100.14 250.45 100.156 250.434 100.176 250.424C100.195 250.413 100.217 250.409 100.239 250.41C100.261 250.411 100.283 250.418 100.301 250.431C100.319 250.443 100.333 250.461 100.342 250.481L100.953 251.844ZM222.192 131.483C222.118 131.071 221.963 130.677 221.737 130.324C221.51 129.972 221.217 129.667 220.873 129.428C220.528 129.189 220.141 129.02 219.731 128.93C219.322 128.841 218.898 128.833 218.486 128.907L210.617 130.323C210.204 130.398 209.811 130.552 209.458 130.779C209.105 131.005 208.801 131.299 208.561 131.643C208.322 131.987 208.153 132.375 208.064 132.785C207.974 133.194 207.967 133.617 208.041 134.03L208.092 134.314C208.166 134.726 208.321 135.12 208.547 135.473C208.774 135.826 209.068 136.13 209.412 136.369C209.756 136.609 210.144 136.778 210.553 136.867C210.963 136.956 211.386 136.964 211.798 136.89L219.667 135.474C220.08 135.4 220.474 135.245 220.827 135.019C221.179 134.792 221.484 134.498 221.723 134.154C221.962 133.81 222.131 133.422 222.221 133.013C222.31 132.603 222.318 132.18 222.243 131.768L222.192 131.483ZM22.1506 129.268C18.8718 130.516 19.4674 134.478 22.6469 135.38C24.6172 135.94 29.8542 137.077 31.7614 136.319C33.5421 135.612 34.4084 133.849 33.6113 132.074C32.5224 129.65 26.8462 129.253 24.4728 129.105C23.3859 129.037 22.6118 129.091 22.1506 129.268ZM20.3487 159.983C21.0977 169.805 30.4198 178.134 38.361 182.381C46.2151 186.584 54.5535 188.752 63.3491 189.901C65.3344 190.163 67.3618 189.553 67.6205 187.369C67.7248 186.474 67.4561 185.329 66.8144 183.933C64.2575 178.372 60.0131 175.95 54.2918 174.229C54.2033 174.203 54.1286 174.143 54.0837 174.062C54.0388 173.982 54.0271 173.888 54.0511 173.799C54.4933 172.202 56.0786 170.199 55.4559 168.58C54.6337 166.443 53.0685 165.574 50.7603 165.975C50.6752 165.99 50.5878 165.983 50.5063 165.954C50.4248 165.926 50.3519 165.877 50.2944 165.813C50.2369 165.748 50.1968 165.67 50.1778 165.586C50.1588 165.502 50.1615 165.414 50.1858 165.332C50.4174 164.534 52.2343 163.13 52.896 162.576C54.7881 160.988 55.0979 158.022 52.7667 156.686C51.389 155.898 48.6095 156.088 46.9521 155.964C46.9028 155.961 46.855 155.946 46.8119 155.922C46.7689 155.898 46.7317 155.864 46.703 155.824C46.6743 155.783 46.6548 155.737 46.6458 155.688C46.6369 155.639 46.6388 155.589 46.6513 155.54C46.9 154.586 47.3672 153.734 48.053 152.986C49.4939 151.41 50.9047 149.837 49.5781 147.683C49.2312 147.118 48.4802 146.488 47.3251 145.794C38.9958 140.78 30.158 137.2 20.4871 136.328C17.7407 136.078 15.1478 138.34 16.1765 141.15C18.4787 147.437 19.8695 153.714 20.3487 159.983ZM189.886 162.832C190.855 163.552 191.689 164.383 192.389 165.326C192.442 165.396 192.472 165.482 192.475 165.57C192.477 165.658 192.452 165.745 192.402 165.819C192.353 165.893 192.281 165.949 192.198 165.981C192.115 166.013 192.024 166.018 191.938 165.996C189.426 165.347 186.815 167.061 186.939 169.817C186.996 171.104 187.916 172.593 188.452 173.856C188.47 173.901 188.479 173.948 188.479 173.996C188.479 174.044 188.469 174.092 188.45 174.136C188.43 174.18 188.403 174.219 188.368 174.252C188.333 174.284 188.292 174.31 188.247 174.326C187.251 174.687 186.081 174.921 185.26 175.222C180.485 176.979 177.17 180.203 175.315 184.896C174.539 186.86 174.66 189.029 176.865 189.787C177.548 190.022 178.585 190.033 179.975 189.82C195.644 187.441 216.758 180.498 221.501 162.949C221.76 161.991 222.023 160.376 222.289 158.106C222.953 152.479 224.236 146.993 226.137 141.649C227.138 138.827 225.613 136.292 222.509 136.403C212.612 136.761 203.224 141.05 194.814 145.93C192.928 147.024 191.821 148.258 192.464 150.457C193.039 152.421 195.235 153.29 195.857 155.441C195.872 155.492 195.875 155.545 195.866 155.597C195.857 155.649 195.837 155.699 195.806 155.742C195.775 155.785 195.735 155.821 195.689 155.846C195.643 155.872 195.591 155.886 195.539 155.889C193.752 155.979 190.873 155.937 189.429 157.129C187.462 158.753 187.937 161.379 189.886 162.832ZM73.7028 217.485C73.1674 219.489 73.5224 221.309 75.6852 221.986C79.722 223.252 86.4811 225.255 90.5992 223.95C93.7606 222.948 94.3472 219.414 92.04 217.176C89.1252 214.348 83.2474 212.615 79.3851 211.605C74.9482 210.447 74.6414 213.966 73.7028 217.485ZM149.753 222.545C152.547 226.08 161.43 223.64 165.136 222.434C168.34 221.393 169.389 219.681 168.484 216.333C167.401 212.321 165.969 210.91 161.662 212.068C158.531 212.91 155.534 214.09 152.671 215.608C150.06 216.995 147.617 219.844 149.753 222.545ZM81.3042 305.929C81.9901 309.611 83.1993 313.443 85.317 316.406C87.7956 319.874 91.4865 322.431 95.012 324.75C97.4696 326.365 98.9225 326.125 100.881 324.067C101.855 323.042 102.917 323.171 103.865 324.133C107.372 327.698 108.849 332.018 108.807 336.969C108.741 344.787 114.564 352.133 119.826 357.502C121.754 359.469 123.826 358.832 125.354 356.903C129.379 351.823 132.351 346.237 133.458 339.842C133.48 339.713 133.612 338.443 133.852 336.03C134.231 332.216 136.195 325.914 139.444 323.487C141.652 321.835 142.934 328.342 147.238 325.138C154.241 319.925 159.448 316.433 160.886 307.788C160.97 307.288 161.141 306.798 161.283 306.32C161.295 306.277 161.322 306.24 161.36 306.217C161.398 306.193 161.444 306.185 161.487 306.193C164.697 306.771 167.046 307.734 168.364 303.892C169.928 299.344 171.82 295.767 174.293 291.141C175.263 289.322 175.953 287.912 176.362 286.912C179.581 279.046 180.026 269.769 179.349 261.331C178.624 252.262 176.768 243.809 174.217 235.107C173.132 231.401 169.444 231.296 167.819 234.568C160.401 249.506 152.632 264.697 150.153 281.434C149.326 287.026 147.885 291.83 143.078 295.238C140.771 296.874 139.706 297.596 140.229 300.64C141.228 306.467 138.1 309.785 132.535 310.633C129.28 311.127 125.093 310.702 122.157 310.742C115.831 310.823 111.313 311.226 106.316 309.659C102.18 308.362 101.588 304.897 102.159 301.068C102.466 299.007 102.466 297.632 100.751 296.483C96.9011 293.905 94.1547 291.129 92.8793 286.599C92.6567 285.807 92.424 284.126 92.1814 281.557C91.4595 273.89 89.435 266.58 86.5052 259.595C83.1361 251.564 79.0512 242.935 74.2503 233.708C73.2125 231.714 70.4511 231.368 69.0764 233.07C68.7636 233.457 68.4377 234.224 68.0988 235.371C62.8618 252.99 59.5529 274.591 68.544 291.592C70.5554 295.396 72.3632 299.297 73.9676 303.294C74.5531 304.754 75.0805 305.711 75.5498 306.166C76.757 307.337 78.2741 307.296 80.101 306.043C80.3958 305.842 80.7297 305.747 81.1027 305.757C81.1507 305.759 81.1966 305.777 81.2332 305.808C81.2698 305.839 81.2948 305.882 81.3042 305.929ZM105.39 278.958C104.397 281.942 106.9 284.866 109.977 283.651C110.807 283.323 111.559 282.92 112.432 282.947C114.928 283.031 117.031 286.782 117.585 289.065C117.786 289.896 117.906 290.816 118.303 291.517C119.958 294.459 124.184 293.731 124.96 290.413C125.89 286.46 128.895 282.917 133.308 283.419C134.517 283.558 135.564 284.25 136.767 284.192C139.038 284.081 140.326 281.843 140.097 279.765C139.832 277.319 138.319 276.007 135.997 275.379C132.222 274.359 129.773 275.328 126.961 277.617C124.512 279.608 122.746 280.294 119.895 278.471C116.772 276.477 113.978 274.783 110.134 275.355C107.811 275.701 106.133 276.717 105.39 278.958ZM105.221 307.731C107.79 309.773 109.785 309.4 112.823 309.421C118.438 309.461 124.052 309.496 129.665 309.526C134.505 309.553 139.095 308.025 139.312 302.379C139.411 299.837 137.874 298.439 135.507 298.02C132.404 297.469 129.297 296.95 126.185 296.462C124.572 296.21 122.689 296.989 121.173 297.491C121.08 297.522 120.98 297.518 120.89 297.479C116.544 295.641 111.069 297.247 106.617 298.072C102.174 298.893 102.183 305.315 105.221 307.731Z" fill="#FEB801"/>
<path d="M115.575 159.574L115.533 159.71C115.489 159.85 115.4 159.891 115.265 159.833C111.319 158.12 107.19 157.301 102.878 157.375C102.807 157.376 102.737 157.351 102.684 157.304C102.63 157.258 102.595 157.193 102.586 157.123L102.316 155.168C102.277 154.891 102.398 154.749 102.677 154.743C109.21 154.626 114.131 156.464 119.883 158.904C120.596 159.207 121.895 159.228 122.593 158.879C128.314 156.016 133.699 154.506 140.172 154.779C140.264 154.783 140.302 154.832 140.286 154.924L140.124 155.814C140.1 155.945 140.023 156.003 139.892 155.989C135.635 155.511 131.784 156.052 128.338 157.61C125.948 158.689 124.282 159.381 123.342 159.686C120.683 160.549 118.415 159.905 115.786 159.445C115.679 159.427 115.609 159.47 115.575 159.574Z" fill="#FEB801"/>
<path d="M112.949 199.591C112.976 199.608 112.997 199.635 113.006 199.666C113.873 202.235 115.864 210.362 114.185 212.745C114.097 212.871 114.019 212.865 113.951 212.727C113.331 211.451 113.599 210.486 113.578 209.243C113.516 205.965 113.014 202.752 112.074 199.606C112.042 199.495 112.082 199.433 112.194 199.419C112.471 199.387 112.722 199.444 112.949 199.591Z" fill="#FEB801"/>
<path d="M128.66 212.576C128.66 212.58 128.659 212.583 128.657 212.585C128.654 212.587 128.651 212.588 128.648 212.588H128.645C128.465 212.568 128.299 212.441 128.156 212.216C128.014 211.99 127.898 211.669 127.815 211.273C127.732 210.876 127.685 210.41 127.674 209.903C127.664 209.396 127.691 208.857 127.755 208.317L128.317 203.531C128.445 202.442 128.712 201.415 129.06 200.675C129.407 199.935 129.807 199.543 130.17 199.585H130.173C130.175 199.585 130.177 199.585 130.179 199.586C130.18 199.586 130.182 199.588 130.183 199.589C130.184 199.591 130.185 199.592 130.185 199.594C130.186 199.596 130.186 199.598 130.185 199.6L128.66 212.576Z" fill="#FEB801"/>
</svg>
