<svg width="240" height="242" viewBox="0 0 240 242" fill="none" xmlns="http://www.w3.org/2000/svg">
<path d="M189.535 40.8827C193.292 46.2581 196.279 51.7693 198.495 57.4164C199.54 60.0807 199.907 62.8695 199.595 65.7827C198.816 73.0549 193.6 78.5167 188.18 82.8463C188.117 82.8958 188.123 82.934 188.198 82.9607L188.868 83.1916C188.933 83.213 188.992 83.2036 189.047 83.1635C197.373 77.1517 202.779 67.8702 199.246 57.3662C198.654 55.6059 197.903 54.0844 197.841 52.037C197.278 33.4993 191.517 16.7983 180.558 1.93394C180.204 1.45219 179.956 1.16583 179.814 1.07483C179.62 0.950381 179.454 0.981159 179.316 1.16716C179.303 1.18501 179.294 1.20596 179.291 1.22807C179.288 1.25018 179.29 1.27273 179.298 1.29362C182.383 9.35074 184.21 17.6126 185.884 26.015C186.133 27.2675 186.012 28.4056 184.816 28.9596C183.704 29.4748 182.761 29.2239 181.988 28.2069C180.22 25.8798 178.377 23.6129 176.458 21.4063C176.411 21.3528 176.353 21.3347 176.285 21.3521L176.104 21.3963C176.061 21.4073 176.021 21.4267 175.985 21.4535C175.95 21.4803 175.92 21.5138 175.898 21.5522C175.876 21.5905 175.861 21.6329 175.856 21.6768C175.85 21.7207 175.853 21.7652 175.866 21.8077C177.196 26.5128 178.51 31.2258 179.808 35.9468C180.241 37.5225 179.752 39.0862 177.919 39.313C177.58 39.3558 177.326 39.3424 177.156 39.2729C171.383 36.923 165.679 34.4153 160.042 31.7497C159.557 31.5208 159.037 31.3783 158.533 31.2418C158.301 31.1803 158.166 31.2679 158.125 31.5048C157.746 33.7549 162.409 37.8638 164.075 39.038C164.886 39.6081 166.055 40.2537 167.582 40.975C173.772 43.8976 180.611 46.7659 185.894 51.202C187.492 52.5448 187.5 54.1225 187.036 56.1579C186.159 60.0058 184.226 63.7513 181.984 66.9288C178.013 72.5591 172.995 77.5552 167.616 81.8547C165.6 83.4645 163.441 83.6512 161.104 84.2675C158.141 85.0489 155.314 86.1703 152.622 87.6316C151.451 88.2659 150.058 88.0451 149.37 86.907C149.141 86.5283 148.96 85.7789 148.826 84.6589C147.963 77.4046 146.337 69.8534 142.405 63.5707C141.55 62.2037 140.235 60.5056 139.48 58.966C137.244 54.4156 136.822 48.8093 136.983 43.7832C136.999 43.2666 136.931 42.8083 136.778 42.4082C136.764 42.3721 136.743 42.3396 136.714 42.3132C136.686 42.2867 136.652 42.2671 136.615 42.2557C136.578 42.2443 136.539 42.2414 136.501 42.2473C136.463 42.2532 136.427 42.2677 136.395 42.2898C134.476 43.6206 133.388 46.6796 132.86 48.9117C131.736 53.6555 131.687 58.4408 132.712 63.2676C134.105 69.8293 136.688 76.12 139.077 82.3666C142.029 90.0885 141.644 97.4571 136.148 103.842C136.108 103.889 136.058 103.908 135.997 103.9L135.15 103.796C135.069 103.785 135.018 103.819 134.998 103.898L134.833 104.521C134.829 104.536 134.829 104.551 134.832 104.566C134.834 104.582 134.84 104.596 134.849 104.609C134.858 104.622 134.869 104.632 134.882 104.64C134.895 104.648 134.91 104.653 134.926 104.655L135.568 104.725C135.656 104.735 135.704 104.784 135.712 104.872C136.22 110.053 137.174 114.703 141.521 118.152C142.926 119.266 144.462 120.454 145.608 121.608C147.859 123.875 149.694 126.459 151.112 129.358C151.15 129.433 151.18 129.431 151.204 129.352C151.471 128.477 151.839 126.865 151.351 126.03C149.444 122.76 146.98 119.973 143.96 117.67C142.527 116.576 141.409 115.872 140.229 114.18C140.212 114.155 140.186 114.138 140.158 114.132C140.129 114.125 140.099 114.13 140.074 114.145L139.227 114.651C139.167 114.689 139.121 114.676 139.089 114.613C137.761 111.992 136.96 109.222 136.684 106.303C136.632 105.755 136.672 104.699 136.945 104.348C141.979 97.8525 142.778 91.1262 140.201 83.4284C139.089 80.1084 138.31 77.968 137.864 77.0072C134.608 69.9952 132.919 62.751 132.796 55.2747C132.762 53.2012 135.504 52.2718 136.726 53.9158C136.947 54.2128 137.158 54.7521 137.36 55.5336C137.905 57.6452 138.698 59.5602 139.739 61.2784C140.696 62.8601 142.132 64.6345 143.013 66.2604C145.052 70.024 146.18 73.8177 146.843 78.0329C147.358 81.3221 147.76 83.6204 148.049 84.9278C148.617 87.4911 149.328 90.1186 150.753 92.3426C150.762 92.3574 150.776 92.3686 150.792 92.3746C150.809 92.3806 150.826 92.381 150.843 92.3757C150.86 92.3704 150.874 92.3597 150.884 92.3454C150.894 92.331 150.898 92.3138 150.897 92.2965C150.809 90.1427 151.75 88.8681 153.625 87.9427C158.585 85.4959 163.748 84.3799 169.077 83.0892C175.623 81.5055 181.068 78.8178 185.852 74.0385C191.932 67.9686 193.369 58.7452 187.64 51.8624C184.986 48.6748 180.858 46.6495 176.947 44.7767C174.059 43.3917 176.181 39.5619 178.722 40.7C180.506 41.4989 182.421 42.0864 184.469 42.4624C184.509 42.4702 184.551 42.4659 184.589 42.4502C184.628 42.4345 184.661 42.408 184.684 42.3739C184.707 42.3399 184.72 42.2997 184.721 42.2584C184.722 42.2171 184.711 42.1764 184.689 42.1412C184.631 42.0476 184.61 41.9479 184.629 41.8421C184.645 41.7511 184.607 41.697 184.515 41.6796C183.196 41.4327 182.146 41.2239 181.751 39.7707C181.272 38.0136 180.801 36.2546 180.34 34.4936C179.641 31.836 182.776 30.3045 184.296 32.5726C185.7 34.6682 187.098 36.7665 188.491 38.8674C188.684 39.1591 188.731 39.6235 188.634 40.2604C188.622 40.3367 188.652 40.3882 188.724 40.415C189.163 40.5823 189.433 40.7382 189.535 40.8827Z" stroke="#FEB801" stroke-width="0.2"/>
<path d="M100.738 117.61C103.807 114.756 105.05 111.596 105.435 107.502C105.547 106.297 105.967 105.414 105.563 104.075C105.543 104.008 105.499 103.98 105.429 103.989L104.937 104.053C104.864 104.062 104.801 104.042 104.749 103.991C97.4863 96.8451 98.9315 87.9931 102.49 79.4843C103.596 76.8408 104.829 74.0647 105.668 71.5075C107.842 64.8675 109.082 57.3664 108.046 50.4032C107.601 47.4084 106.461 44.3293 104.17 42.2618C104.151 42.2446 104.128 42.2318 104.103 42.2242C104.079 42.2166 104.052 42.2145 104.027 42.2179C104.001 42.2213 103.976 42.2303 103.954 42.2441C103.932 42.2579 103.914 42.2763 103.899 42.298C103.586 42.7757 103.514 43.2072 103.53 43.8275C103.669 49.0584 103.147 55.0842 100.62 59.7872C100.363 60.2662 99.8134 61.1012 98.9717 62.2922C94.08 69.2112 92.7893 77.4369 91.4746 85.6386C91.1112 87.9168 89.5918 88.3865 87.6447 87.425C84.1173 85.6814 80.428 84.3968 76.5767 83.5711C74.2042 83.0613 73.1985 82.1941 71.113 80.4679C66.9004 76.982 63.102 73.0865 59.7178 68.7817C56.7651 65.0261 54.1637 60.5218 53.2745 55.9533C52.8369 53.7112 53.0517 52.3523 54.8442 50.9874C56.5437 49.6947 57.8658 48.776 58.8105 48.2314C63.084 45.7725 67.6705 43.8817 72.0825 41.6817C76.1412 39.6584 80.9887 36.4027 82.2854 31.7719C82.3897 31.3999 82.2499 31.2373 81.8658 31.2842C81.5366 31.3243 81.1232 31.4601 80.6254 31.6916C75.088 34.2609 69.5065 36.7305 63.8809 39.1004C62.4504 39.7026 61.3631 39.4443 60.6191 38.3256C60.2337 37.7455 60.2297 37.0871 60.4183 36.4428C61.881 31.4929 63.2867 26.5377 64.6356 21.5771C64.6398 21.5613 64.6402 21.5447 64.6368 21.5287C64.6334 21.5127 64.6263 21.4978 64.6161 21.4852C64.6059 21.4726 64.5928 21.4627 64.5781 21.4563C64.5633 21.45 64.5472 21.4473 64.5312 21.4486C63.9611 21.4908 63.6299 21.7337 63.2767 22.2114C61.9278 24.0313 60.4933 25.7789 58.9731 27.4543C58.2987 28.197 57.7601 28.6634 57.3573 28.8534C55.5768 29.7004 54.244 28.0043 54.5772 26.2721C56.2975 17.3538 57.9474 9.45528 61.0988 1.52864C61.1216 1.4711 61.1062 1.42627 61.0526 1.39416C60.7154 1.19744 60.4471 1.2309 60.2477 1.49452C49.3711 15.8879 43.544 32.1888 42.7666 50.3972C42.701 51.9348 42.5852 53.0689 42.4193 53.7995C42.149 54.9838 41.7275 56.2638 41.1547 57.6394C40.1083 60.1565 39.7731 62.9305 40.1491 65.9615C41.0363 73.0872 45.8276 79.0387 51.4178 83.2078C51.4754 83.2493 51.5369 83.2586 51.6025 83.2359L52.2388 83.0151C52.254 83.0099 52.2676 83.0006 52.2779 82.9883C52.2883 82.9759 52.2951 82.961 52.2976 82.9451C52.3 82.9292 52.2981 82.9129 52.292 82.898C52.2859 82.8831 52.2758 82.8701 52.2629 82.8605C45.2395 77.4891 39.7155 70.3473 41.215 60.9213C41.4612 59.3783 41.8298 58.0007 42.3209 56.7883C44.3924 51.6819 47.1591 46.4664 50.6209 41.1418C50.922 40.6774 51.3502 40.373 51.9056 40.2285C51.9778 40.2097 52.0073 40.1636 51.9939 40.09C51.8895 39.5159 51.9404 39.0562 52.1465 38.711C52.7553 37.6833 54.0125 35.7543 55.9181 32.9241C56.2138 32.4838 56.5015 32.1841 56.7812 32.0248C58.2164 31.2019 60.0169 32.1192 60.1152 33.7852C60.1326 34.0729 60.0631 34.5085 59.9065 35.0919C59.4227 36.9025 59.0153 38.9699 58.2485 40.6721C58.215 40.747 58.2398 40.7818 58.3228 40.7765C59.3023 40.7149 60.2805 40.7015 61.2574 40.7363C62.6685 40.7885 63.8849 39.4196 65.3381 39.534C66.677 39.6384 67.6786 41.0093 67.2691 42.296C67.0082 43.1189 66.4361 43.4782 65.6613 43.7914C64.2495 44.3614 62.5728 45.1603 60.6311 46.188C57.7447 47.7155 54.9486 49.496 52.9032 51.8846C49.3423 56.0416 48.2464 61.4391 50.0489 66.6359C51.7651 71.5938 55.4664 75.1988 59.764 78.2198C63.4533 80.8111 67.1246 82.3587 71.4542 83.2479C75.6755 84.1171 80.8522 85.0906 84.8546 86.9995C86.5648 87.8144 87.8729 88.6006 88.7788 89.358C89.571 90.0204 89.8467 90.9357 89.6058 92.1039C89.6028 92.1187 89.6048 92.134 89.6115 92.1475C89.6182 92.1611 89.6291 92.172 89.6426 92.1786C89.6561 92.1853 89.6715 92.1873 89.6862 92.1843C89.701 92.1813 89.7144 92.1735 89.7242 92.1621C91.4163 90.1549 91.9101 87.3166 92.2955 84.7313C93.065 79.5566 94.2707 74.4823 95.9126 69.5083C96.8801 66.5717 98.6364 64.3316 100.323 61.8064C101.65 59.8206 102.613 57.6755 103.211 55.3712C103.502 54.2451 103.855 53.4583 104.959 53.1773C105.64 53.002 106.267 53.1351 106.838 53.5767C107.938 54.4278 107.707 55.5097 107.641 56.7903C107.34 62.5813 106.13 68.1012 104.086 73.5128C102.797 76.9291 101.334 80.2692 100.112 83.7116C97.6147 90.741 98.4518 97.5597 103.064 103.565C103.821 104.551 104.158 105.233 103.881 106.396C103.206 109.224 102.522 112.056 101.832 114.89C101.828 114.907 101.82 114.922 101.809 114.935C101.798 114.948 101.784 114.958 101.768 114.964C101.752 114.97 101.735 114.973 101.718 114.971C101.701 114.969 101.684 114.964 101.669 114.955L100.435 114.176C100.361 114.129 100.298 114.14 100.246 114.21C99.4688 115.234 98.8418 115.911 98.3655 116.243C94.5731 118.882 91.4752 122.171 89.0719 126.111C88.6142 126.86 89.4954 129.79 89.8005 130.691C89.8055 130.705 89.8147 130.718 89.8268 130.727C89.8389 130.735 89.8534 130.74 89.8684 130.741C89.8834 130.741 89.8981 130.737 89.9107 130.729C89.9233 130.721 89.9332 130.709 89.939 130.695C91.1166 127.848 92.7405 125.3 94.8106 123.052C96.3281 121.404 98.6987 119.507 100.738 117.61Z" stroke="#FEB801" stroke-width="0.2"/>
<path d="M106.698 168.385L106.29 167.476C106.284 167.463 106.274 167.451 106.262 167.443C106.25 167.434 106.236 167.43 106.221 167.429C106.207 167.428 106.192 167.431 106.179 167.438C106.166 167.445 106.155 167.455 106.148 167.468C104.686 169.874 103.226 172.286 101.766 174.704C101.125 175.766 100.162 176.097 99.5437 174.775C96.0217 167.235 92.5123 159.689 89.0157 152.137C88.3975 150.802 89.1602 149.806 90.5894 150.503C93.6016 151.971 96.7443 152.224 100.017 151.262C100.088 151.24 100.124 151.193 100.124 151.119V151.045C100.124 150.974 100.145 150.91 100.186 150.852C101.393 149.181 103.026 148.617 105.086 149.16C105.414 149.246 105.51 149.082 105.375 148.67C105.358 148.62 105.332 148.573 105.299 148.532C103.39 146.246 101.171 144.318 98.6405 142.749C98.5954 142.72 98.5609 142.678 98.5421 142.628C98.5232 142.578 98.5211 142.523 98.5361 142.472L98.7007 141.93C98.7194 141.868 98.6993 141.823 98.6405 141.795C96.4285 140.766 94.1128 140.109 91.6934 139.822C91.0571 139.748 90.3605 139.521 90.1799 138.927C89.9551 138.19 89.6339 136.757 89.2164 134.629C89.1348 134.212 88.9876 133.79 88.7748 133.363C87.8247 131.453 87.2259 129.441 86.9783 127.325C86.4564 122.875 84.2986 119.013 80.4808 116.624C79.7321 116.155 79.1882 115.601 79.6378 114.728C80.1215 113.788 81.7314 113.897 81.4925 112.457C81.3199 111.41 79.2524 110.821 78.4395 110.47C77.4981 110.061 77.1187 109.091 77.8273 108.266C78.3351 107.67 82.0846 106.939 80.806 105.444C79.7622 104.226 78.3451 103.786 76.8598 103.256C74.6096 102.451 77.5503 99.7855 76.4382 98.9746C73.711 96.9861 70.4921 95.1033 66.7813 93.3262C65.302 92.6176 65.7958 90.8171 67.2832 91.1805C73.0942 92.6016 80.1878 94.7815 84.2545 99.5206C84.9369 100.315 85.4548 101.281 85.9707 102.222C88.7206 107.226 92.4922 111.263 97.3277 114.334C97.3812 114.368 97.4294 114.362 97.4722 114.316L98.5321 113.208C98.5458 113.194 98.5562 113.176 98.5624 113.157C98.5687 113.138 98.5706 113.118 98.5681 113.098C98.5656 113.079 98.5587 113.06 98.548 113.043C98.5372 113.026 98.5229 113.012 98.506 113.001C93.5721 109.853 89.7764 105.726 87.1188 100.621C86.5622 99.55 86.1125 98.7926 85.77 98.3483C83.6523 95.5924 80.4226 93.9163 77.1307 92.6839C69.9582 89.9995 62.724 87.4904 55.4283 85.1567C55.2744 85.1085 55.0068 84.9366 54.6254 84.6408C54.5751 84.602 54.5121 84.5834 54.4488 84.5886C53.9363 84.6221 53.6225 84.6856 53.5074 84.7793C50.7755 87.0013 49.0392 88.7798 49.1858 92.4691C49.2326 93.6681 49.4106 94.8537 49.7197 96.026C50.5888 99.3279 51.6888 102.622 51.9016 106.052C52.7587 119.9 69.7159 126.4 81.1091 127.672C81.2697 127.69 81.5126 127.801 81.8377 128.006C82.5443 128.451 83.2488 128.499 83.853 129.15C88.3653 133.991 89.1441 140.081 87.1831 146.404C83.0461 159.738 78.5479 174.14 81.6149 188.241C82.4018 191.854 84.3629 195.616 85.9245 198.384C88.0014 202.066 89.2452 205.987 89.656 210.146C89.6935 210.534 89.7791 210.892 89.9129 211.22C89.9437 211.296 89.9939 211.313 90.0635 211.27C90.7138 210.867 91.2417 210.14 91.8901 209.895C93.542 209.271 94.2426 210.209 95.1779 211.543C95.7708 212.39 96.4365 213.177 97.1752 213.904C98.8733 215.58 101.216 216.598 102.769 218.268C103.698 219.266 104.433 220.407 104.973 221.692C104.984 221.716 105 221.737 105.021 221.752C105.042 221.768 105.066 221.777 105.092 221.78C105.118 221.783 105.144 221.78 105.168 221.769C105.192 221.759 105.213 221.743 105.228 221.722C105.798 220.963 106.196 219.869 106.826 219.315C107.972 218.312 109.504 218.727 110.19 220.034C110.997 221.576 111.047 222.666 111.049 224.681C111.055 230.229 114.421 234.414 117.816 238.603C118.717 239.715 120.732 241.961 122.21 240.546C123.097 239.697 123.573 239.001 124.516 237.716C126.601 234.882 129.034 230.496 129.269 226.931C129.395 225.021 129.618 223.125 129.94 221.24C130.053 220.57 130.225 220.085 130.455 219.785C131.168 218.856 132.613 218.691 133.563 219.36C134.368 219.928 134.554 221.431 135.381 221.738C135.457 221.768 135.511 221.744 135.542 221.668C136.419 219.5 137.694 218.041 139.637 216.78C141.917 215.304 143.891 213.494 145.558 211.349C146.389 210.279 147.053 209.612 148.394 209.994C149.105 210.195 149.633 210.897 150.303 211.274C150.35 211.301 150.402 211.315 150.455 211.316C150.508 211.316 150.561 211.304 150.608 211.279C150.655 211.254 150.695 211.218 150.724 211.174C150.753 211.129 150.771 211.078 150.775 211.025C151.112 206.905 152.199 203.053 154.037 199.47C154.953 197.681 155.873 195.893 156.795 194.106C158.559 190.69 159.304 187.221 159.661 183.271C160.562 173.303 158.521 163.01 155.534 153.54C154.901 151.535 154.275 149.527 153.655 147.516C153.016 145.435 152.644 144.15 152.539 143.66C152.008 141.155 152.073 138.671 152.734 136.207C153.768 132.353 155.948 128.421 160.263 127.66C161.956 127.362 163.051 127.164 163.549 127.068C172.521 125.346 184.892 119.804 187.789 110.045C188.216 108.603 188.371 106.857 188.594 105.251C189.071 101.841 189.828 98.5732 190.767 95.2973C192.178 90.3735 191.036 87.9508 187.116 84.9098C186.757 84.6328 186.44 84.6348 186.016 84.5364C185.949 84.5217 185.888 84.5344 185.832 84.5746C185.448 84.8536 185.131 85.1085 184.669 85.2591C179.226 87.0335 173.805 88.8781 168.409 90.793C163.932 92.3808 158.559 93.9986 155.265 97.6438C153.788 99.2817 152.981 101.542 151.795 103.362C149.241 107.282 145.965 110.489 141.965 112.983C141.891 113.029 141.882 113.085 141.937 113.152L142.898 114.324C142.956 114.392 143.022 114.403 143.097 114.356C147.935 111.328 151.72 107.348 154.452 102.417C155.341 100.814 155.9 99.8591 156.13 99.5527C157.8 97.3367 160.596 95.7008 163.013 94.6249C166.13 93.2412 169.466 92.0904 173.021 91.1724C174.619 90.7609 175.165 92.706 174.137 93.1616C171.812 94.1974 169.565 95.381 167.397 96.7124C166.172 97.4652 164.404 98.5752 163.842 99.9381C163.802 100.034 163.797 100.141 163.826 100.24C163.855 100.339 163.918 100.425 164.003 100.484C165.319 101.397 164.611 103.051 163.186 103.366C161.7 103.697 160.446 104.434 159.422 105.578C159.377 105.631 159.365 105.689 159.386 105.753C159.721 106.755 160.41 107.379 161.453 107.624C161.815 107.71 162.26 107.776 162.531 108.031C163.431 108.876 163.176 110.051 162.062 110.504C161.096 110.896 157.489 112.038 159.454 113.668C159.874 114.015 160.494 113.983 160.857 114.493C161.478 115.366 160.956 116.008 160.165 116.512C156.823 118.64 154.709 121.626 153.822 125.472C153.742 125.824 153.659 126.504 153.573 127.512C153.44 129.068 153.044 130.562 152.383 131.994C152.352 132.058 152.354 132.121 152.389 132.183C152.612 132.575 152.697 132.893 152.644 133.136C152.231 135 151.809 136.861 151.375 138.718C151.08 139.985 150.446 140.531 149.123 140.756C142.326 141.912 137.21 144.656 133.625 150.635C133.59 150.696 133.579 150.768 133.594 150.837C133.609 150.906 133.648 150.967 133.705 151.008C133.762 151.05 133.832 151.069 133.901 151.062C133.971 151.056 134.037 151.024 134.085 150.973C135.626 149.232 136.293 148.166 138.705 149.431C142.21 151.268 145.883 151.29 149.488 149.569C151.367 148.672 153.44 150.362 152.529 152.337C149.098 159.788 145.664 167.239 142.226 174.688C141.539 176.176 140.321 177.304 138.693 176.085C138.057 175.608 137.671 174.672 137.276 173.948C136.987 173.42 136.628 172.886 136.198 172.344C131.353 166.218 128.423 159.277 127.41 151.522C127.402 151.461 127.375 151.404 127.333 151.359C127.291 151.314 127.236 151.283 127.176 151.271C127.115 151.259 127.053 151.266 126.997 151.291C126.941 151.317 126.895 151.359 126.864 151.412C126.565 151.928 126.666 152.259 126.78 152.96C127.859 159.519 130.326 165.504 134.183 170.915C135.236 172.392 135.892 173.373 136.152 173.857C138.352 177.968 139.33 182.365 139.087 187.047C138.79 192.792 135.694 197.503 129.606 198.057C127.958 198.208 126.391 198.071 124.907 197.647C123.382 197.212 123.013 195.76 123.394 194.323C123.88 192.497 124.996 191.178 126.744 190.367C128.121 189.727 129.022 190.266 130.245 190.742C131.867 191.375 132.977 190.602 133.466 189.04C134.042 187.203 133.326 184.734 131.443 183.831C129.086 182.699 126.772 182.868 124.552 184.142C122.796 185.152 121.443 187.284 119.231 185.341C116.912 183.303 114.711 182.904 111.543 183.054C111.461 183.057 111.419 183.018 111.417 182.938L111.409 182.657C111.406 182.562 111.36 182.532 111.272 182.567C109.765 183.147 108.696 184.128 108.065 185.507C106.613 188.677 108.372 192.932 112.559 191.581C113.695 191.214 114.721 190.511 115.375 192.111C115.716 192.941 116.035 193.779 116.332 194.626C116.728 195.744 116.164 196.367 115.1 196.674C110.002 198.145 104.811 196.88 103.374 191.176C101.596 184.129 102.704 177.676 106.698 171.818C106.74 171.755 106.734 171.697 106.68 171.643L106.208 171.194C106.16 171.148 106.154 171.098 106.19 171.043C108.845 166.883 111.042 162.492 112.782 157.871C113.209 156.735 114.807 152.044 113.546 151.25C113.522 151.234 113.494 151.226 113.466 151.224C113.437 151.223 113.408 151.229 113.383 151.241C113.357 151.254 113.335 151.273 113.319 151.297C113.302 151.32 113.292 151.347 113.289 151.376C112.611 157.92 110.116 162.874 106.84 168.393C106.833 168.406 106.822 168.417 106.809 168.424C106.796 168.43 106.781 168.434 106.766 168.433C106.752 168.432 106.737 168.427 106.725 168.419C106.713 168.41 106.704 168.399 106.698 168.385Z" stroke="#FEB801" stroke-width="0.2"/>
<path d="M116.595 106.729C118.35 107.036 119.863 107.465 121.638 106.889C122.265 106.686 123.377 106.224 124.972 105.504C127.271 104.464 129.841 104.104 132.681 104.422C132.768 104.432 132.82 104.393 132.836 104.306L132.944 103.712C132.955 103.65 132.93 103.618 132.868 103.615C128.549 103.433 124.956 104.44 121.138 106.351C120.672 106.584 119.805 106.57 119.329 106.367C115.491 104.739 112.207 103.513 107.848 103.591C107.662 103.595 107.581 103.69 107.607 103.874L107.788 105.179C107.793 105.226 107.816 105.269 107.852 105.3C107.888 105.331 107.934 105.348 107.982 105.348C110.859 105.298 113.615 105.845 116.248 106.987C116.338 107.026 116.397 106.999 116.427 106.905L116.455 106.815C116.478 106.745 116.524 106.716 116.595 106.729Z" stroke="#FEB801" stroke-width="0.2"/>
<path d="M92.0647 137.853C94.5002 138.139 96.8366 138.783 99.074 139.784C99.0926 139.792 99.1128 139.796 99.1331 139.795C99.1534 139.795 99.1732 139.789 99.1911 139.779C99.209 139.77 99.2243 139.756 99.2361 139.739C99.2478 139.723 99.2555 139.704 99.2587 139.684C99.4875 138.14 99.727 136.582 99.9773 135.011C100.886 129.317 103.262 124.411 107.105 120.294C110.56 116.59 115.104 114.802 116.021 109.21C116.033 109.139 116.007 109.088 115.941 109.057C113.289 107.815 110.494 107.253 107.557 107.369C107.494 107.372 107.46 107.404 107.456 107.467C107.195 111.209 106.103 114.617 103.624 117.488C101.489 119.964 98.8231 121.767 96.591 124.109C94.1315 126.688 92.3263 129.686 91.1755 133.104C91.0858 133.37 91.0698 133.644 91.1273 133.925C91.3842 135.194 91.6586 136.468 91.9503 137.749C91.9637 137.81 92.0018 137.845 92.0647 137.853Z" stroke="#FEB801" stroke-width="0.2"/>
<path d="M114.703 133.517C114.551 133.42 114.383 133.382 114.199 133.403C114.124 133.412 114.097 133.454 114.118 133.527C114.746 135.627 115.081 137.771 115.122 139.959C115.136 140.788 114.957 141.432 115.371 142.283C115.416 142.375 115.469 142.379 115.527 142.295C116.648 140.705 115.319 135.282 114.741 133.568C114.734 133.547 114.721 133.529 114.703 133.517Z" stroke="#FEB801" stroke-width="0.2"/>
<path d="M125.186 142.183L126.204 133.523C126.204 133.522 126.204 133.521 126.204 133.52C126.204 133.518 126.203 133.517 126.203 133.516C126.202 133.515 126.201 133.515 126.2 133.514C126.199 133.513 126.197 133.513 126.196 133.513H126.194C125.951 133.485 125.685 133.747 125.453 134.241C125.221 134.735 125.043 135.42 124.958 136.147L124.582 139.34C124.54 139.701 124.522 140.06 124.528 140.399C124.535 140.737 124.567 141.048 124.623 141.312C124.678 141.577 124.755 141.791 124.85 141.942C124.945 142.092 125.056 142.177 125.176 142.191H125.178C125.18 142.191 125.183 142.19 125.184 142.188C125.186 142.187 125.186 142.185 125.186 142.183Z" stroke="#FEB801" stroke-width="0.2"/>
<path d="M100.575 153.192C97.5485 154.064 94.8347 154.017 91.8298 153.178C91.7442 153.154 91.7201 153.183 91.7576 153.265L100.67 172.452C100.674 172.462 100.682 172.471 100.691 172.478C100.701 172.484 100.712 172.488 100.723 172.489C100.735 172.489 100.746 172.487 100.756 172.481C100.766 172.476 100.774 172.468 100.78 172.458L105.13 165.254C105.166 165.195 105.169 165.135 105.14 165.073C103.331 161.265 101.856 157.331 100.716 153.271C100.695 153.197 100.648 153.171 100.575 153.192Z" stroke="#FEB801" stroke-width="0.2"/>
<path d="M105.353 190.937C106.501 195.204 110.429 195.692 114.157 194.875C114.244 194.856 114.271 194.805 114.239 194.723L113.771 193.468C113.757 193.432 113.729 193.402 113.694 193.386C113.659 193.37 113.619 193.368 113.582 193.382C109.028 195.024 105.563 192.207 105.588 187.681C105.604 184.279 107.844 181.573 111.059 180.493C111.088 180.483 111.113 180.463 111.128 180.436C111.144 180.41 111.149 180.379 111.144 180.349C110.734 178.229 109.682 175.025 108.209 173.383C108.199 173.373 108.188 173.364 108.174 173.359C108.161 173.353 108.146 173.351 108.132 173.352C108.117 173.354 108.103 173.358 108.09 173.365C108.078 173.373 108.067 173.383 108.058 173.395C104.571 178.826 103.669 184.673 105.353 190.937Z" stroke="#FEB801" stroke-width="0.2"/>
<path d="M189.049 17.8878C187.66 15.7761 184.679 17.1471 185.225 19.5458C186.163 23.6754 186.95 27.3794 187.584 30.6579C188.399 34.8832 189.585 39.0522 191.817 42.7637C192.11 43.2534 192.379 43.5947 192.622 43.7874C194.332 45.1423 196.482 43.5947 196.161 41.5252C195.037 34.2844 193.086 27.2764 190.308 20.5012C189.801 19.2634 189.381 18.3923 189.049 17.8878Z" stroke="#FEB801" stroke-width="0.2"/>
<path d="M175.564 76.1381C175.051 77.9787 177.12 79.5624 178.776 78.5769C184.587 75.1144 189.788 69.8875 190.32 62.7718C190.561 59.5461 187.03 58.8355 185.86 61.6276C183.714 66.7501 180.109 70.8951 176.365 74.8976C175.932 75.3619 175.665 75.7754 175.564 76.1381Z" stroke="#FEB801" stroke-width="0.2"/>
<path d="M55.1995 18.7929C54.9666 17.444 53.4913 16.6692 52.2609 17.2032C51.6145 17.4822 51.2914 17.9679 51.0124 18.6042C47.8784 25.7246 45.6985 33.0471 44.4727 40.5716C44.3282 41.4535 44.2867 42.0576 44.3483 42.3842C44.555 43.4821 45.8116 44.283 46.9276 43.9518C48.437 43.5022 50.2396 40.4512 50.8377 39.0903C51.1589 38.361 51.4553 37.3172 51.7269 35.9589C52.7801 30.6879 53.8908 25.4296 55.059 20.1839C55.2022 19.5416 55.249 19.0779 55.1995 18.7929Z" stroke="#FEB801" stroke-width="0.2"/>
<path d="M50.3299 61.7981C49.3664 68.689 55.9602 74.9456 61.1751 78.2275C61.7953 78.6169 62.6143 78.938 63.2406 78.663C64.7741 77.9906 65.4104 76.3025 64.1438 75.0239C60.1112 70.9532 56.9799 66.8283 54.2782 61.6134C53.5656 60.2365 52.0521 59.6242 50.8257 60.8848C50.5393 61.1779 50.3741 61.4823 50.3299 61.7981Z" stroke="#FEB801" stroke-width="0.2"/>
<path d="M187.599 88.0702C187.55 87.7949 187.447 87.5321 187.296 87.2968C187.144 87.0614 186.948 86.8581 186.719 86.6985C186.489 86.5389 186.23 86.4261 185.957 86.3665C185.684 86.3069 185.401 86.3018 185.126 86.3513L179.875 87.2961C179.6 87.3456 179.337 87.4489 179.102 87.6C178.866 87.751 178.663 87.947 178.504 88.1767C178.344 88.4063 178.231 88.6652 178.172 88.9384C178.112 89.2117 178.107 89.494 178.156 89.7693L178.19 89.9589C178.24 90.2342 178.343 90.497 178.494 90.7323C178.645 90.9677 178.841 91.171 179.071 91.3306C179.301 91.4902 179.56 91.603 179.833 91.6626C180.106 91.7222 180.388 91.7273 180.664 91.6778L185.915 90.733C186.19 90.6835 186.453 90.5802 186.688 90.4291C186.923 90.2781 187.127 90.0821 187.286 89.8524C187.446 89.6228 187.559 89.3639 187.618 89.0907C187.678 88.8174 187.683 88.5351 187.634 88.2598L187.599 88.0702Z" stroke="#FEB801" stroke-width="0.2"/>
<path d="M54.1136 86.5918C51.9257 87.4248 52.3231 90.0683 54.4448 90.6705C55.7595 91.0439 59.2541 91.8026 60.5267 91.2968C61.715 90.8251 62.2931 89.6488 61.7612 88.4645C61.0346 86.8467 57.2469 86.5817 55.6632 86.4834C54.9379 86.4379 54.4213 86.474 54.1136 86.5918Z" stroke="#FEB801" stroke-width="0.2"/>
<path d="M52.9112 107.088C53.411 113.642 59.6315 119.2 64.9306 122.034C70.1716 124.838 75.7357 126.285 81.6049 127.052C82.9297 127.227 84.2826 126.819 84.4552 125.362C84.5248 124.765 84.3455 124.001 83.9173 123.07C82.2111 119.358 79.3789 117.742 75.5611 116.594C75.502 116.576 75.4522 116.536 75.4222 116.483C75.3922 116.429 75.3844 116.366 75.4005 116.307C75.6955 115.241 76.7534 113.905 76.3379 112.825C75.7892 111.398 74.7448 110.819 73.2045 111.086C73.1478 111.096 73.0895 111.091 73.0351 111.072C72.9807 111.053 72.932 111.021 72.8936 110.978C72.8553 110.935 72.8285 110.883 72.8158 110.827C72.8031 110.771 72.805 110.712 72.8212 110.657C72.9757 110.125 74.1881 109.187 74.6297 108.818C75.8923 107.758 76.099 105.779 74.5434 104.888C73.6241 104.362 71.7694 104.489 70.6634 104.406C70.6305 104.404 70.5986 104.394 70.5698 104.378C70.5411 104.362 70.5163 104.339 70.4971 104.312C70.478 104.285 70.465 104.254 70.459 104.222C70.453 104.189 70.4543 104.155 70.4626 104.123C70.6286 103.486 70.9404 102.918 71.398 102.419C72.3595 101.367 73.3009 100.317 72.4157 98.8802C72.1842 98.5029 71.683 98.0827 70.9123 97.6197C65.3542 94.2736 59.4569 91.885 53.0036 91.3029C51.1709 91.1363 49.4407 92.6457 50.1272 94.5205C51.6634 98.7157 52.5914 102.905 52.9112 107.088Z" stroke="#FEB801" stroke-width="0.2"/>
<path d="M166.042 108.989C166.688 109.469 167.245 110.024 167.712 110.653C167.748 110.7 167.767 110.757 167.769 110.816C167.771 110.875 167.754 110.933 167.721 110.982C167.688 111.031 167.64 111.069 167.585 111.09C167.529 111.111 167.468 111.115 167.411 111.101C165.735 110.667 163.993 111.811 164.075 113.65C164.113 114.509 164.727 115.502 165.085 116.345C165.097 116.375 165.103 116.407 165.103 116.439C165.103 116.471 165.096 116.503 165.083 116.532C165.07 116.561 165.052 116.587 165.029 116.609C165.005 116.631 164.978 116.648 164.948 116.659C164.284 116.899 163.503 117.056 162.955 117.257C159.769 118.429 157.557 120.581 156.319 123.712C155.801 125.023 155.881 126.47 157.353 126.976C157.809 127.132 158.501 127.14 159.428 126.998C169.884 125.41 183.973 120.778 187.138 109.067C187.311 108.428 187.486 107.35 187.664 105.836C188.107 102.081 188.963 98.4201 190.231 94.8538C190.9 92.971 189.882 91.2789 187.811 91.3532C181.207 91.5921 174.942 94.4544 169.33 97.7102C168.071 98.4408 167.333 99.2638 167.762 100.731C168.146 102.042 169.611 102.622 170.026 104.057C170.036 104.091 170.038 104.127 170.032 104.161C170.026 104.196 170.012 104.229 169.992 104.258C169.972 104.287 169.945 104.31 169.914 104.327C169.883 104.344 169.849 104.354 169.814 104.356C168.621 104.416 166.7 104.388 165.737 105.183C164.424 106.267 164.741 108.019 166.042 108.989Z" stroke="#FEB801" stroke-width="0.2"/>
<path d="M88.5139 145.459C88.1566 146.795 88.3934 148.01 89.8366 148.461C92.5304 149.307 97.0407 150.643 99.7886 149.772C101.898 149.104 102.29 146.745 100.75 145.252C98.805 143.365 94.8829 142.209 92.3056 141.534C89.3449 140.762 89.1401 143.11 88.5139 145.459Z" stroke="#FEB801" stroke-width="0.2"/>
<path d="M139.261 148.835C141.126 151.193 147.053 149.565 149.526 148.76C151.664 148.066 152.365 146.924 151.76 144.69C151.038 142.012 150.082 141.071 147.208 141.843C145.119 142.405 143.119 143.193 141.208 144.206C139.466 145.131 137.836 147.032 139.261 148.835Z" stroke="#FEB801" stroke-width="0.2"/>
<path d="M93.5862 204.476C94.0438 206.933 94.8508 209.49 96.2639 211.467C97.9178 213.781 100.381 215.488 102.733 217.035C104.373 218.113 105.343 217.953 106.649 216.58C107.3 215.895 108.008 215.981 108.641 216.624C110.981 219.002 111.967 221.885 111.939 225.189C111.894 230.406 115.78 235.307 119.291 238.89C120.578 240.203 121.961 239.777 122.98 238.491C125.666 235.1 127.649 231.373 128.388 227.106C128.403 227.02 128.49 226.172 128.651 224.562C128.904 222.017 130.215 217.812 132.382 216.192C133.856 215.09 134.711 219.432 137.583 217.294C142.256 213.816 145.731 211.485 146.69 205.716C146.746 205.383 146.861 205.056 146.955 204.737C146.963 204.708 146.982 204.684 147.007 204.668C147.032 204.652 147.062 204.647 147.092 204.652C149.233 205.038 150.801 205.68 151.68 203.117C152.724 200.082 153.986 197.695 155.636 194.608C156.284 193.394 156.744 192.454 157.017 191.786C159.165 186.537 159.462 180.347 159.011 174.716C158.527 168.664 157.288 163.024 155.586 157.217C154.862 154.744 152.401 154.674 151.317 156.858C146.367 166.826 141.182 176.962 139.528 188.131C138.976 191.862 138.015 195.068 134.807 197.342C133.268 198.434 132.557 198.916 132.906 200.947C133.573 204.835 131.485 207.049 127.772 207.615C125.6 207.944 122.806 207.661 120.847 207.687C116.625 207.742 113.611 208.011 110.277 206.965C107.517 206.1 107.121 203.787 107.502 201.232C107.707 199.857 107.707 198.94 106.563 198.173C103.994 196.453 102.161 194.6 101.31 191.577C101.162 191.049 101.006 189.927 100.844 188.213C100.363 183.097 99.0118 178.219 97.0567 173.558C94.8086 168.199 92.0828 162.441 88.8792 156.284C88.1867 154.953 86.344 154.722 85.4267 155.858C85.218 156.116 85.0005 156.628 84.7744 157.394C81.2797 169.15 79.0717 183.564 85.0714 194.909C86.4136 197.448 87.62 200.051 88.6905 202.717C89.0812 203.692 89.4332 204.331 89.7463 204.634C90.5519 205.416 91.5642 205.388 92.7833 204.552C92.98 204.418 93.2028 204.355 93.4517 204.361C93.4837 204.363 93.5144 204.375 93.5388 204.395C93.5632 204.416 93.5799 204.444 93.5862 204.476Z" stroke="#FEB801" stroke-width="0.2"/>
<path d="M109.658 186.479C108.996 188.47 110.666 190.421 112.719 189.61C113.273 189.391 113.775 189.122 114.357 189.14C116.023 189.197 117.426 191.7 117.796 193.223C117.93 193.777 118.01 194.391 118.275 194.859C119.379 196.822 122.2 196.336 122.717 194.122C123.338 191.485 125.343 189.12 128.288 189.456C129.095 189.548 129.793 190.01 130.596 189.971C132.111 189.897 132.971 188.404 132.818 187.017C132.641 185.385 131.632 184.51 130.082 184.09C127.563 183.41 125.929 184.056 124.052 185.584C122.418 186.912 121.24 187.37 119.337 186.154C117.254 184.823 115.389 183.693 112.824 184.074C111.274 184.305 110.154 184.983 109.658 186.479Z" stroke="#FEB801" stroke-width="0.2"/>
<path d="M109.546 205.678C111.26 207.041 112.591 206.792 114.618 206.806C118.365 206.833 122.111 206.856 125.857 206.876C129.086 206.894 132.15 205.875 132.294 202.107C132.36 200.411 131.335 199.478 129.755 199.199C127.685 198.831 125.611 198.484 123.534 198.159C122.459 197.99 121.202 198.51 120.19 198.845C120.128 198.866 120.061 198.863 120.002 198.837C117.101 197.611 113.448 198.683 110.477 199.233C107.513 199.781 107.519 204.066 109.546 205.678Z" stroke="#FEB801" stroke-width="0.2"/>
<path d="M189.535 40.8827C189.433 40.7382 189.163 40.5823 188.724 40.415C188.652 40.3882 188.622 40.3367 188.634 40.2604C188.731 39.6235 188.684 39.1591 188.491 38.8674C187.098 36.7665 185.7 34.6682 184.296 32.5726C182.776 30.3045 179.641 31.836 180.34 34.4936C180.801 36.2546 181.272 38.0136 181.751 39.7707C182.146 41.2239 183.196 41.4327 184.515 41.6796C184.607 41.697 184.645 41.7511 184.629 41.8421C184.61 41.9479 184.631 42.0476 184.689 42.1412C184.711 42.1764 184.722 42.2171 184.721 42.2584C184.72 42.2997 184.707 42.3399 184.684 42.3739C184.661 42.408 184.628 42.4345 184.589 42.4502C184.551 42.4659 184.509 42.4702 184.469 42.4624C182.421 42.0864 180.506 41.4989 178.722 40.7C176.181 39.5619 174.059 43.3917 176.947 44.7767C180.858 46.6495 184.986 48.6748 187.64 51.8624C193.369 58.7452 191.932 67.9686 185.852 74.0385C181.068 78.8178 175.623 81.5055 169.077 83.0892C163.748 84.3799 158.585 85.4959 153.625 87.9427C151.75 88.8681 150.809 90.1427 150.897 92.2965C150.898 92.3138 150.894 92.331 150.884 92.3454C150.874 92.3597 150.86 92.3704 150.843 92.3757C150.826 92.381 150.809 92.3806 150.792 92.3746C150.776 92.3686 150.762 92.3574 150.753 92.3426C149.328 90.1186 148.617 87.4911 148.049 84.9278C147.76 83.6204 147.358 81.3221 146.843 78.0329C146.18 73.8177 145.052 70.024 143.013 66.2604C142.132 64.6345 140.696 62.8601 139.739 61.2784C138.698 59.5602 137.905 57.6452 137.36 55.5336C137.158 54.7521 136.947 54.2128 136.726 53.9158C135.504 52.2718 132.762 53.2012 132.796 55.2747C132.919 62.751 134.608 69.9952 137.864 77.0072C138.31 77.968 139.089 80.1084 140.201 83.4284C142.778 91.1262 141.979 97.8525 136.945 104.348C136.672 104.699 136.632 105.755 136.684 106.303C136.96 109.222 137.761 111.992 139.089 114.613C139.121 114.676 139.167 114.689 139.227 114.651L140.074 114.145C140.099 114.13 140.129 114.125 140.158 114.132C140.186 114.138 140.212 114.155 140.229 114.18C141.409 115.872 142.527 116.576 143.96 117.67C146.98 119.973 149.444 122.76 151.351 126.03C151.839 126.865 151.471 128.477 151.204 129.352C151.18 129.431 151.15 129.433 151.112 129.358C149.694 126.459 147.859 123.875 145.608 121.608C144.462 120.454 142.926 119.266 141.521 118.152C137.174 114.703 136.22 110.053 135.712 104.872C135.704 104.784 135.656 104.735 135.568 104.725L134.926 104.655C134.91 104.653 134.895 104.648 134.882 104.64C134.869 104.632 134.858 104.622 134.849 104.609C134.84 104.596 134.834 104.582 134.832 104.566C134.829 104.551 134.829 104.536 134.833 104.521L134.998 103.898C135.018 103.819 135.069 103.785 135.15 103.796L135.997 103.9C136.058 103.908 136.108 103.889 136.148 103.842C141.644 97.4571 142.029 90.0885 139.077 82.3666C136.688 76.12 134.105 69.8293 132.712 63.2676C131.687 58.4408 131.736 53.6555 132.86 48.9117C133.388 46.6796 134.476 43.6206 136.395 42.2898C136.427 42.2677 136.463 42.2532 136.501 42.2473C136.539 42.2414 136.578 42.2443 136.615 42.2557C136.652 42.2671 136.686 42.2867 136.714 42.3132C136.743 42.3396 136.764 42.3721 136.778 42.4082C136.931 42.8083 136.999 43.2666 136.983 43.7832C136.822 48.8093 137.244 54.4156 139.48 58.966C140.235 60.5056 141.55 62.2037 142.405 63.5707C146.337 69.8534 147.963 77.4046 148.826 84.6589C148.96 85.7789 149.141 86.5283 149.37 86.907C150.058 88.0451 151.451 88.2659 152.622 87.6316C155.314 86.1703 158.141 85.0489 161.104 84.2675C163.441 83.6512 165.6 83.4645 167.616 81.8547C172.995 77.5552 178.013 72.5591 181.984 66.9288C184.226 63.7513 186.159 60.0058 187.036 56.1579C187.5 54.1225 187.492 52.5448 185.894 51.202C180.611 46.7659 173.772 43.8976 167.582 40.975C166.055 40.2537 164.886 39.6081 164.075 39.038C162.409 37.8638 157.746 33.7549 158.125 31.5048C158.166 31.2679 158.301 31.1803 158.533 31.2418C159.037 31.3783 159.557 31.5208 160.042 31.7497C165.679 34.4153 171.383 36.923 177.156 39.2729C177.326 39.3424 177.58 39.3558 177.919 39.313C179.752 39.0862 180.241 37.5225 179.808 35.9468C178.51 31.2258 177.196 26.5128 175.866 21.8077C175.853 21.7652 175.85 21.7207 175.856 21.6768C175.861 21.6329 175.876 21.5905 175.898 21.5522C175.92 21.5138 175.95 21.4803 175.985 21.4535C176.021 21.4267 176.061 21.4073 176.104 21.3963L176.285 21.3521C176.353 21.3347 176.411 21.3528 176.458 21.4063C178.377 23.6129 180.22 25.8798 181.988 28.2069C182.761 29.2239 183.704 29.4748 184.816 28.9596C186.012 28.4056 186.133 27.2675 185.884 26.015C184.21 17.6126 182.383 9.35074 179.298 1.29362C179.29 1.27273 179.288 1.25018 179.291 1.22807C179.294 1.20596 179.303 1.18501 179.316 1.16716C179.454 0.981159 179.62 0.950381 179.814 1.07483C179.956 1.16583 180.204 1.45219 180.558 1.93394C191.517 16.7983 197.278 33.4993 197.841 52.037C197.903 54.0844 198.654 55.6059 199.246 57.3662C202.779 67.8702 197.373 77.1517 189.047 83.1635C188.992 83.2036 188.933 83.213 188.868 83.1916L188.198 82.9607C188.123 82.934 188.117 82.8958 188.18 82.8463C193.6 78.5167 198.816 73.0549 199.595 65.7827C199.907 62.8695 199.54 60.0807 198.495 57.4164C196.279 51.7693 193.292 46.2581 189.535 40.8827ZM189.049 17.8876C187.66 15.776 184.679 17.1469 185.225 19.5456C186.163 23.6752 186.95 27.3792 187.584 30.6577C188.399 34.883 189.585 39.0521 191.817 42.7635C192.11 43.2532 192.379 43.5945 192.622 43.7872C194.332 45.1421 196.482 43.5945 196.161 41.525C195.037 34.2842 193.086 27.2762 190.308 20.501C189.801 19.2632 189.381 18.3921 189.049 17.8876ZM175.564 76.1381C175.051 77.9787 177.12 79.5624 178.776 78.5769C184.587 75.1144 189.788 69.8875 190.32 62.7718C190.561 59.5461 187.03 58.8356 185.86 61.6276C183.714 66.7502 180.109 70.8951 176.365 74.8976C175.932 75.3619 175.665 75.7754 175.564 76.1381Z" fill="#FEB801"/>
<path d="M100.738 117.61C98.6987 119.507 96.3281 121.404 94.8106 123.052C92.7405 125.3 91.1166 127.848 89.939 130.695C89.9332 130.709 89.9233 130.721 89.9107 130.729C89.8981 130.737 89.8834 130.741 89.8684 130.741C89.8534 130.74 89.8389 130.735 89.8268 130.727C89.8147 130.718 89.8055 130.705 89.8005 130.691C89.4954 129.79 88.6142 126.86 89.0719 126.111C91.4752 122.171 94.5731 118.882 98.3655 116.243C98.8418 115.911 99.4688 115.234 100.246 114.21C100.298 114.14 100.361 114.129 100.435 114.176L101.669 114.955C101.684 114.964 101.701 114.969 101.718 114.971C101.735 114.973 101.752 114.97 101.768 114.964C101.784 114.958 101.798 114.948 101.809 114.935C101.82 114.922 101.828 114.907 101.832 114.89C102.522 112.056 103.206 109.224 103.881 106.396C104.158 105.233 103.821 104.551 103.064 103.565C98.4518 97.5597 97.6147 90.741 100.112 83.7116C101.334 80.2692 102.797 76.9291 104.086 73.5128C106.13 68.1012 107.34 62.5813 107.641 56.7903C107.707 55.5097 107.938 54.4278 106.838 53.5767C106.267 53.1351 105.64 53.002 104.959 53.1773C103.855 53.4583 103.502 54.2451 103.211 55.3712C102.613 57.6755 101.65 59.8206 100.323 61.8064C98.6364 64.3316 96.8801 66.5717 95.9126 69.5083C94.2707 74.4823 93.065 79.5566 92.2955 84.7313C91.9101 87.3166 91.4163 90.1549 89.7242 92.1621C89.7144 92.1735 89.701 92.1813 89.6862 92.1843C89.6715 92.1873 89.6561 92.1853 89.6426 92.1786C89.6291 92.172 89.6182 92.1611 89.6115 92.1475C89.6048 92.134 89.6028 92.1187 89.6058 92.1039C89.8467 90.9357 89.571 90.0204 88.7788 89.358C87.8729 88.6006 86.5648 87.8144 84.8546 86.9995C80.8522 85.0906 75.6755 84.1171 71.4542 83.2479C67.1246 82.3587 63.4533 80.8111 59.764 78.2198C55.4664 75.1988 51.7651 71.5938 50.0489 66.6359C48.2464 61.4391 49.3423 56.0416 52.9032 51.8846C54.9486 49.496 57.7447 47.7155 60.6311 46.188C62.5728 45.1603 64.2495 44.3614 65.6613 43.7914C66.4361 43.4782 67.0082 43.1189 67.2691 42.296C67.6786 41.0093 66.677 39.6384 65.3381 39.534C63.8849 39.4196 62.6685 40.7885 61.2574 40.7363C60.2805 40.7015 59.3023 40.7149 58.3228 40.7765C58.2398 40.7818 58.215 40.747 58.2485 40.6721C59.0153 38.9699 59.4227 36.9025 59.9065 35.0919C60.0631 34.5085 60.1326 34.0729 60.1152 33.7852C60.0169 32.1192 58.2164 31.2019 56.7812 32.0248C56.5015 32.1841 56.2138 32.4838 55.9181 32.9241C54.0125 35.7543 52.7553 37.6833 52.1465 38.711C51.9404 39.0562 51.8895 39.5159 51.9939 40.09C52.0073 40.1636 51.9778 40.2097 51.9056 40.2285C51.3502 40.373 50.922 40.6774 50.6209 41.1418C47.1591 46.4664 44.3924 51.6819 42.3209 56.7883C41.8298 58.0007 41.4612 59.3783 41.215 60.9213C39.7155 70.3473 45.2395 77.4891 52.2629 82.8605C52.2758 82.8701 52.2859 82.8831 52.292 82.898C52.2981 82.9129 52.3 82.9292 52.2976 82.9451C52.2951 82.961 52.2883 82.9759 52.2779 82.9883C52.2676 83.0006 52.254 83.0099 52.2388 83.0151L51.6025 83.2359C51.5369 83.2586 51.4754 83.2493 51.4178 83.2078C45.8276 79.0387 41.0363 73.0872 40.1491 65.9615C39.7731 62.9305 40.1083 60.1565 41.1547 57.6394C41.7275 56.2638 42.149 54.9838 42.4193 53.7995C42.5852 53.0689 42.701 51.9348 42.7666 50.3972C43.544 32.1888 49.3711 15.8879 60.2477 1.49452C60.4471 1.2309 60.7154 1.19744 61.0526 1.39416C61.1062 1.42627 61.1216 1.4711 61.0988 1.52864C57.9474 9.45528 56.2975 17.3538 54.5772 26.2721C54.244 28.0043 55.5768 29.7004 57.3573 28.8534C57.7601 28.6634 58.2987 28.197 58.9731 27.4543C60.4933 25.7789 61.9278 24.0313 63.2767 22.2114C63.6299 21.7337 63.9611 21.4908 64.5312 21.4486C64.5472 21.4473 64.5633 21.45 64.5781 21.4563C64.5928 21.4627 64.6059 21.4726 64.6161 21.4852C64.6263 21.4978 64.6334 21.5127 64.6368 21.5287C64.6402 21.5447 64.6398 21.5613 64.6356 21.5771C63.2867 26.5377 61.881 31.4929 60.4183 36.4428C60.2297 37.0871 60.2337 37.7455 60.6191 38.3256C61.3631 39.4443 62.4504 39.7026 63.8809 39.1004C69.5065 36.7305 75.088 34.2609 80.6254 31.6916C81.1232 31.4601 81.5366 31.3243 81.8658 31.2842C82.2499 31.2373 82.3897 31.3999 82.2854 31.7719C80.9887 36.4027 76.1412 39.6584 72.0825 41.6817C67.6705 43.8817 63.084 45.7725 58.8105 48.2314C57.8658 48.776 56.5437 49.6947 54.8442 50.9874C53.0517 52.3523 52.8369 53.7112 53.2745 55.9533C54.1637 60.5218 56.7651 65.0261 59.7178 68.7817C63.102 73.0865 66.9004 76.982 71.113 80.4679C73.1985 82.1941 74.2042 83.0613 76.5767 83.5711C80.428 84.3968 84.1173 85.6814 87.6447 87.425C89.5918 88.3865 91.1112 87.9168 91.4746 85.6386C92.7893 77.4369 94.08 69.2112 98.9717 62.2922C99.8134 61.1012 100.363 60.2662 100.62 59.7872C103.147 55.0842 103.669 49.0584 103.53 43.8275C103.514 43.2072 103.586 42.7757 103.899 42.298C103.914 42.2763 103.932 42.2579 103.954 42.2441C103.976 42.2303 104.001 42.2213 104.027 42.2179C104.052 42.2145 104.079 42.2166 104.103 42.2242C104.128 42.2318 104.151 42.2446 104.17 42.2618C106.461 44.3293 107.601 47.4084 108.046 50.4032C109.082 57.3664 107.842 64.8675 105.668 71.5075C104.829 74.0647 103.596 76.8408 102.49 79.4843C98.9315 87.9931 97.4863 96.8451 104.749 103.991C104.801 104.042 104.864 104.062 104.937 104.053L105.429 103.989C105.499 103.98 105.543 104.008 105.563 104.075C105.967 105.414 105.547 106.297 105.435 107.502C105.05 111.596 103.807 114.756 100.738 117.61ZM55.1995 18.793C54.9666 17.4442 53.4913 16.6694 52.2609 17.2033C51.6145 17.4823 51.2914 17.968 51.0124 18.6043C47.8784 25.7247 45.6985 33.0472 44.4727 40.5717C44.3282 41.4536 44.2867 42.0578 44.3483 42.3843C44.555 43.4822 45.8116 44.2831 46.9276 43.9519C48.437 43.5023 50.2396 40.4513 50.8377 39.0904C51.1589 38.3611 51.4553 37.3173 51.7269 35.9591C52.7801 30.688 53.8908 25.4297 55.059 20.1841C55.2022 19.5417 55.249 19.0781 55.1995 18.793ZM50.3299 61.7984C49.3664 68.6893 55.9602 74.9459 61.1751 78.2278C61.7953 78.6172 62.6143 78.9384 63.2405 78.6634C64.7741 77.9909 65.4104 76.3028 64.1438 75.0242C60.1112 70.9535 56.9799 66.8286 54.2782 61.6138C53.5656 60.2368 52.0521 59.6246 50.8257 60.8851C50.5393 61.1782 50.374 61.4826 50.3299 61.7984Z" fill="#FEB801"/>
<path d="M92.0647 137.853C92.0018 137.845 91.9637 137.81 91.9503 137.749C91.6586 136.468 91.3842 135.194 91.1273 133.925C91.0698 133.644 91.0858 133.37 91.1755 133.104C92.3263 129.686 94.1315 126.688 96.591 124.109C98.8231 121.767 101.489 119.964 103.624 117.488C106.103 114.617 107.195 111.209 107.456 107.467C107.46 107.404 107.494 107.372 107.557 107.369C110.494 107.253 113.289 107.815 115.941 109.057C116.007 109.088 116.033 109.139 116.021 109.21C115.104 114.802 110.56 116.59 107.105 120.294C103.262 124.411 100.886 129.317 99.9773 135.011C99.727 136.582 99.4875 138.14 99.2587 139.684C99.2555 139.704 99.2478 139.723 99.2361 139.739C99.2243 139.756 99.209 139.77 99.1911 139.779C99.1732 139.789 99.1534 139.795 99.1331 139.795C99.1128 139.796 99.0926 139.792 99.074 139.784C96.8366 138.783 94.5002 138.139 92.0647 137.853Z" fill="#FEB801"/>
<path d="M91.8298 153.178C94.8347 154.017 97.5485 154.064 100.575 153.192C100.648 153.171 100.695 153.197 100.716 153.271C101.856 157.331 103.331 161.265 105.14 165.073C105.169 165.135 105.166 165.195 105.13 165.254L100.78 172.458C100.774 172.468 100.766 172.476 100.756 172.481C100.746 172.487 100.735 172.489 100.723 172.489C100.712 172.488 100.701 172.484 100.691 172.478C100.682 172.471 100.674 172.462 100.67 172.452L91.7576 153.265C91.7201 153.183 91.7442 153.154 91.8298 153.178Z" fill="#FEB801"/>
<path d="M114.157 194.875C110.429 195.692 106.501 195.204 105.353 190.937C103.669 184.673 104.571 178.826 108.058 173.395C108.067 173.383 108.078 173.373 108.09 173.365C108.103 173.358 108.117 173.354 108.132 173.352C108.146 173.351 108.161 173.353 108.174 173.359C108.188 173.364 108.199 173.373 108.209 173.383C109.682 175.025 110.734 178.229 111.144 180.349C111.149 180.379 111.144 180.41 111.128 180.436C111.113 180.463 111.088 180.483 111.059 180.493C107.844 181.573 105.604 184.279 105.588 187.681C105.563 192.207 109.028 195.024 113.582 193.382C113.619 193.368 113.659 193.37 113.694 193.386C113.729 193.402 113.757 193.432 113.771 193.468L114.239 194.723C114.271 194.805 114.244 194.856 114.157 194.875Z" fill="#FEB801"/>
<path d="M106.698 168.385C106.704 168.399 106.713 168.41 106.725 168.419C106.737 168.427 106.752 168.432 106.766 168.433C106.781 168.434 106.796 168.43 106.809 168.424C106.822 168.417 106.833 168.406 106.84 168.393C110.116 162.874 112.611 157.92 113.289 151.376C113.292 151.347 113.302 151.32 113.319 151.297C113.335 151.273 113.357 151.254 113.383 151.241C113.408 151.229 113.437 151.223 113.466 151.224C113.494 151.226 113.522 151.234 113.546 151.25C114.807 152.044 113.209 156.735 112.782 157.871C111.042 162.492 108.845 166.883 106.19 171.043C106.154 171.098 106.16 171.148 106.208 171.194L106.68 171.643C106.734 171.697 106.74 171.755 106.698 171.818C102.704 177.676 101.596 184.129 103.374 191.176C104.811 196.88 110.002 198.145 115.1 196.674C116.164 196.367 116.728 195.744 116.332 194.626C116.035 193.779 115.716 192.941 115.375 192.111C114.721 190.511 113.695 191.214 112.559 191.581C108.372 192.932 106.613 188.677 108.065 185.507C108.696 184.128 109.765 183.147 111.272 182.567C111.36 182.532 111.406 182.562 111.409 182.657L111.417 182.938C111.419 183.018 111.461 183.057 111.543 183.054C114.711 182.904 116.912 183.303 119.231 185.341C121.443 187.284 122.796 185.152 124.552 184.142C126.772 182.868 129.086 182.699 131.443 183.831C133.326 184.734 134.042 187.203 133.466 189.04C132.977 190.602 131.867 191.375 130.245 190.742C129.022 190.266 128.121 189.727 126.744 190.367C124.996 191.178 123.88 192.497 123.394 194.323C123.013 195.76 123.382 197.212 124.907 197.647C126.391 198.071 127.958 198.208 129.606 198.057C135.694 197.503 138.79 192.792 139.087 187.047C139.33 182.365 138.352 177.968 136.152 173.857C135.892 173.373 135.236 172.392 134.183 170.915C130.326 165.504 127.859 159.519 126.78 152.96C126.666 152.259 126.565 151.928 126.864 151.412C126.895 151.359 126.941 151.317 126.997 151.291C127.053 151.266 127.115 151.259 127.176 151.271C127.236 151.283 127.291 151.314 127.333 151.359C127.375 151.404 127.402 151.461 127.41 151.522C128.423 159.277 131.353 166.218 136.198 172.344C136.628 172.886 136.987 173.42 137.276 173.948C137.671 174.672 138.057 175.608 138.693 176.085C140.321 177.304 141.539 176.176 142.226 174.688C145.664 167.239 149.098 159.788 152.529 152.337C153.44 150.362 151.367 148.672 149.488 149.569C145.883 151.29 142.21 151.268 138.705 149.431C136.293 148.166 135.626 149.232 134.085 150.973C134.037 151.024 133.971 151.056 133.901 151.062C133.832 151.069 133.762 151.05 133.705 151.008C133.648 150.967 133.609 150.906 133.594 150.837C133.579 150.768 133.59 150.696 133.625 150.635C137.21 144.656 142.326 141.912 149.123 140.756C150.446 140.531 151.08 139.985 151.375 138.718C151.809 136.861 152.231 135 152.644 133.136C152.697 132.893 152.612 132.575 152.389 132.183C152.354 132.121 152.352 132.058 152.383 131.994C153.044 130.562 153.44 129.068 153.573 127.512C153.659 126.504 153.742 125.824 153.822 125.472C154.709 121.626 156.823 118.64 160.165 116.512C160.956 116.008 161.478 115.366 160.857 114.493C160.494 113.983 159.874 114.015 159.454 113.668C157.489 112.038 161.096 110.896 162.062 110.504C163.176 110.051 163.431 108.876 162.531 108.031C162.26 107.776 161.815 107.71 161.453 107.624C160.41 107.379 159.721 106.755 159.386 105.753C159.365 105.689 159.377 105.631 159.422 105.578C160.446 104.434 161.7 103.697 163.186 103.366C164.611 103.051 165.319 101.397 164.003 100.484C163.918 100.425 163.855 100.339 163.826 100.24C163.797 100.141 163.802 100.034 163.842 99.9381C164.404 98.5752 166.172 97.4652 167.397 96.7124C169.565 95.381 171.812 94.1974 174.137 93.1616C175.165 92.706 174.619 90.7609 173.021 91.1724C169.466 92.0904 166.13 93.2412 163.013 94.6249C160.596 95.7008 157.8 97.3367 156.13 99.5527C155.9 99.8591 155.341 100.814 154.452 102.417C151.72 107.348 147.935 111.328 143.097 114.356C143.022 114.403 142.956 114.392 142.898 114.324L141.937 113.152C141.882 113.085 141.891 113.029 141.965 112.983C145.965 110.489 149.241 107.282 151.795 103.362C152.981 101.542 153.788 99.2817 155.265 97.6438C158.559 93.9986 163.932 92.3808 168.409 90.793C173.805 88.8781 179.226 87.0335 184.669 85.2591C185.131 85.1085 185.448 84.8536 185.832 84.5746C185.888 84.5344 185.949 84.5217 186.016 84.5364C186.44 84.6348 186.757 84.6328 187.116 84.9098C191.036 87.9508 192.178 90.3735 190.767 95.2973C189.828 98.5732 189.071 101.841 188.594 105.251C188.371 106.857 188.216 108.603 187.789 110.045C184.892 119.804 172.521 125.346 163.549 127.068C163.051 127.164 161.956 127.362 160.263 127.66C155.948 128.421 153.768 132.353 152.734 136.207C152.073 138.671 152.008 141.155 152.539 143.66C152.644 144.15 153.016 145.435 153.655 147.516C154.275 149.527 154.901 151.535 155.534 153.54C158.521 163.01 160.562 173.303 159.661 183.271C159.304 187.221 158.559 190.69 156.795 194.106C155.873 195.893 154.953 197.681 154.037 199.47C152.199 203.053 151.112 206.905 150.775 211.025C150.771 211.078 150.753 211.129 150.724 211.174C150.695 211.218 150.655 211.254 150.608 211.279C150.561 211.304 150.508 211.316 150.455 211.316C150.402 211.315 150.35 211.301 150.303 211.274C149.633 210.897 149.105 210.195 148.394 209.994C147.053 209.612 146.389 210.279 145.558 211.349C143.891 213.494 141.917 215.304 139.637 216.78C137.694 218.041 136.419 219.5 135.542 221.668C135.511 221.744 135.457 221.768 135.381 221.738C134.554 221.431 134.368 219.928 133.563 219.36C132.613 218.691 131.168 218.856 130.455 219.785C130.225 220.085 130.053 220.57 129.94 221.24C129.618 223.125 129.395 225.021 129.269 226.931C129.034 230.496 126.601 234.882 124.516 237.716C123.573 239.001 123.097 239.697 122.21 240.546C120.732 241.961 118.717 239.715 117.816 238.603C114.421 234.414 111.055 230.229 111.049 224.681C111.047 222.666 110.997 221.576 110.19 220.034C109.504 218.727 107.972 218.312 106.826 219.315C106.196 219.869 105.798 220.963 105.228 221.722C105.213 221.743 105.192 221.759 105.168 221.769C105.144 221.78 105.118 221.783 105.092 221.78C105.066 221.777 105.042 221.768 105.021 221.752C105 221.737 104.984 221.716 104.973 221.692C104.433 220.407 103.698 219.266 102.769 218.268C101.216 216.598 98.8733 215.58 97.1752 213.904C96.4365 213.177 95.7708 212.39 95.1779 211.543C94.2426 210.209 93.542 209.271 91.8901 209.895C91.2417 210.14 90.7138 210.867 90.0635 211.27C89.9939 211.313 89.9437 211.296 89.9129 211.22C89.7791 210.892 89.6935 210.534 89.656 210.146C89.2452 205.987 88.0014 202.066 85.9245 198.384C84.3629 195.616 82.4018 191.854 81.6149 188.241C78.5479 174.14 83.0461 159.738 87.1831 146.404C89.1441 140.081 88.3653 133.991 83.853 129.15C83.2488 128.499 82.5443 128.451 81.8377 128.006C81.5126 127.801 81.2697 127.69 81.1091 127.672C69.7159 126.4 52.7587 119.9 51.9016 106.052C51.6888 102.622 50.5888 99.3279 49.7197 96.026C49.4106 94.8537 49.2326 93.6681 49.1858 92.4691C49.0392 88.7798 50.7755 87.0013 53.5074 84.7793C53.6225 84.6856 53.9363 84.6221 54.4488 84.5886C54.5121 84.5834 54.5751 84.602 54.6254 84.6408C55.0068 84.9366 55.2744 85.1085 55.4283 85.1567C62.724 87.4904 69.9582 89.9995 77.1307 92.6839C80.4226 93.9163 83.6523 95.5924 85.77 98.3483C86.1125 98.7926 86.5622 99.55 87.1188 100.621C89.7764 105.726 93.5721 109.853 98.506 113.001C98.5229 113.012 98.5372 113.026 98.548 113.043C98.5587 113.06 98.5656 113.079 98.5681 113.098C98.5706 113.118 98.5687 113.138 98.5624 113.157C98.5562 113.176 98.5458 113.194 98.5321 113.208L97.4722 114.316C97.4294 114.362 97.3812 114.368 97.3277 114.334C92.4922 111.263 88.7206 107.226 85.9707 102.222C85.4548 101.281 84.9369 100.315 84.2545 99.5206C80.1878 94.7815 73.0942 92.6016 67.2832 91.1805C65.7958 90.8171 65.302 92.6176 66.7813 93.3262C70.4921 95.1033 73.711 96.9861 76.4382 98.9746C77.5503 99.7855 74.6096 102.451 76.8598 103.256C78.3451 103.786 79.7622 104.226 80.806 105.444C82.0846 106.939 78.3351 107.67 77.8273 108.266C77.1187 109.091 77.4981 110.061 78.4395 110.47C79.2524 110.821 81.3199 111.41 81.4925 112.457C81.7314 113.897 80.1215 113.788 79.6378 114.728C79.1882 115.601 79.7321 116.155 80.4808 116.624C84.2986 119.013 86.4564 122.875 86.9783 127.325C87.2259 129.441 87.8247 131.453 88.7748 133.363C88.9876 133.79 89.1348 134.212 89.2164 134.629C89.6339 136.757 89.9551 138.19 90.1799 138.927C90.3605 139.521 91.0571 139.748 91.6934 139.822C94.1128 140.109 96.4285 140.766 98.6405 141.795C98.6993 141.823 98.7194 141.868 98.7007 141.93L98.5361 142.472C98.5211 142.523 98.5232 142.578 98.5421 142.628C98.5609 142.678 98.5954 142.72 98.6405 142.749C101.171 144.318 103.39 146.246 105.299 148.532C105.332 148.573 105.358 148.62 105.375 148.67C105.51 149.082 105.414 149.246 105.086 149.16C103.026 148.617 101.393 149.181 100.186 150.852C100.145 150.91 100.124 150.974 100.124 151.045V151.119C100.124 151.193 100.088 151.24 100.017 151.262C96.7443 152.224 93.6016 151.971 90.5894 150.503C89.1602 149.806 88.3975 150.802 89.0157 152.137C92.5123 159.689 96.0217 167.235 99.5437 174.775C100.162 176.097 101.125 175.766 101.766 174.704C103.226 172.286 104.686 169.874 106.148 167.468C106.155 167.455 106.166 167.445 106.179 167.438C106.192 167.431 106.207 167.428 106.221 167.429C106.236 167.43 106.25 167.434 106.262 167.443C106.274 167.451 106.284 167.463 106.29 167.476L106.698 168.385ZM187.599 88.0703C187.55 87.795 187.447 87.5322 187.296 87.2969C187.144 87.0615 186.948 86.8582 186.719 86.6986C186.489 86.539 186.23 86.4262 185.957 86.3666C185.684 86.307 185.401 86.3018 185.126 86.3514L179.875 87.2962C179.6 87.3457 179.337 87.4489 179.102 87.6C178.866 87.7511 178.663 87.9471 178.504 88.1767C178.344 88.4064 178.231 88.6652 178.172 88.9385C178.112 89.2118 178.107 89.4941 178.156 89.7693L178.19 89.959C178.24 90.2342 178.343 90.497 178.494 90.7324C178.645 90.9677 178.841 91.171 179.071 91.3306C179.301 91.4903 179.56 91.6031 179.833 91.6627C180.106 91.7222 180.388 91.7274 180.664 91.6779L185.915 90.7331C186.19 90.6836 186.453 90.5803 186.688 90.4292C186.923 90.2781 187.127 90.0822 187.286 89.8525C187.446 89.6228 187.559 89.364 187.618 89.0907C187.678 88.8175 187.683 88.5352 187.633 88.2599L187.599 88.0703ZM54.1136 86.5919C51.9257 87.4249 52.3231 90.0684 54.4448 90.6706C55.7595 91.044 59.2541 91.8027 60.5267 91.2969C61.715 90.8252 62.2931 89.6489 61.7612 88.4646C61.0346 86.8468 57.2469 86.5818 55.6632 86.4835C54.9379 86.438 54.4213 86.4741 54.1136 86.5919ZM52.9112 107.088C53.411 113.642 59.6315 119.2 64.9307 122.034C70.1716 124.838 75.7357 126.285 81.6049 127.052C82.9297 127.227 84.2826 126.819 84.4552 125.362C84.5248 124.765 84.3455 124.001 83.9173 123.07C82.2111 119.358 79.3789 117.742 75.5611 116.594C75.502 116.576 75.4522 116.536 75.4222 116.483C75.3922 116.429 75.3844 116.366 75.4005 116.307C75.6956 115.241 76.7534 113.905 76.3379 112.825C75.7892 111.398 74.7448 110.819 73.2046 111.086C73.1478 111.096 73.0895 111.091 73.0351 111.072C72.9807 111.053 72.932 111.021 72.8937 110.978C72.8553 110.935 72.8285 110.883 72.8158 110.827C72.8031 110.771 72.805 110.712 72.8212 110.657C72.9757 110.125 74.1881 109.188 74.6297 108.818C75.8923 107.758 76.099 105.779 74.5434 104.888C73.6241 104.362 71.7694 104.489 70.6634 104.406C70.6305 104.404 70.5986 104.394 70.5698 104.378C70.5411 104.362 70.5163 104.339 70.4971 104.312C70.478 104.285 70.465 104.254 70.459 104.222C70.453 104.189 70.4543 104.155 70.4626 104.123C70.6286 103.486 70.9404 102.918 71.398 102.419C72.3595 101.367 73.3009 100.317 72.4157 98.8803C72.1842 98.5029 71.6831 98.0827 70.9123 97.6197C65.3542 94.2736 59.4569 91.885 53.0036 91.3029C51.1709 91.1363 49.4407 92.6457 50.1272 94.5205C51.6634 98.7157 52.5914 102.905 52.9112 107.088ZM166.042 108.989C166.688 109.469 167.245 110.024 167.712 110.653C167.748 110.7 167.767 110.757 167.769 110.816C167.771 110.875 167.754 110.933 167.721 110.982C167.688 111.031 167.64 111.069 167.585 111.09C167.529 111.111 167.468 111.115 167.411 111.1C165.735 110.667 163.993 111.811 164.075 113.65C164.113 114.509 164.727 115.502 165.085 116.345C165.097 116.375 165.103 116.407 165.103 116.439C165.103 116.471 165.096 116.502 165.083 116.532C165.07 116.561 165.052 116.587 165.029 116.609C165.005 116.631 164.978 116.648 164.948 116.659C164.284 116.899 163.503 117.056 162.955 117.257C159.769 118.429 157.557 120.581 156.319 123.712C155.801 125.023 155.881 126.47 157.353 126.976C157.809 127.132 158.501 127.14 159.428 126.998C169.884 125.41 183.973 120.777 187.138 109.067C187.311 108.427 187.486 107.35 187.664 105.835C188.107 102.081 188.963 98.4199 190.231 94.8537C190.9 92.9709 189.882 91.2788 187.811 91.3531C181.207 91.5919 174.942 94.4543 169.33 97.71C168.071 98.4407 167.333 99.2637 167.762 100.731C168.146 102.042 169.611 102.622 170.026 104.057C170.036 104.091 170.038 104.127 170.032 104.161C170.026 104.196 170.012 104.229 169.992 104.258C169.972 104.286 169.945 104.31 169.914 104.327C169.883 104.344 169.849 104.354 169.814 104.356C168.621 104.416 166.7 104.388 165.737 105.183C164.424 106.267 164.741 108.019 166.042 108.989ZM88.5139 145.459C88.1566 146.795 88.3934 148.01 89.8367 148.461C92.5304 149.306 97.0407 150.643 99.7886 149.772C101.898 149.104 102.29 146.745 100.75 145.252C98.8051 143.365 94.8829 142.209 92.3056 141.534C89.3449 140.762 89.1401 143.11 88.5139 145.459ZM139.261 148.835C141.126 151.193 147.053 149.565 149.526 148.761C151.664 148.066 152.365 146.924 151.76 144.69C151.038 142.012 150.082 141.071 147.208 141.844C145.119 142.406 143.119 143.193 141.208 144.206C139.466 145.131 137.836 147.032 139.261 148.835ZM93.5862 204.476C94.0439 206.933 94.8508 209.49 96.2639 211.467C97.9178 213.781 100.381 215.488 102.733 217.035C104.373 218.113 105.343 217.953 106.649 216.58C107.3 215.895 108.008 215.981 108.641 216.624C110.981 219.002 111.967 221.885 111.939 225.189C111.894 230.406 115.78 235.307 119.291 238.89C120.578 240.203 121.961 239.777 122.98 238.491C125.666 235.101 127.649 231.373 128.388 227.106C128.403 227.02 128.49 226.172 128.651 224.562C128.904 222.017 130.215 217.812 132.382 216.192C133.856 215.09 134.711 219.432 137.583 217.294C142.256 213.816 145.731 211.485 146.69 205.716C146.746 205.383 146.861 205.056 146.955 204.737C146.963 204.708 146.982 204.684 147.007 204.668C147.032 204.652 147.062 204.647 147.092 204.652C149.233 205.038 150.801 205.68 151.68 203.117C152.724 200.082 153.986 197.695 155.636 194.608C156.284 193.394 156.744 192.454 157.017 191.786C159.165 186.537 159.462 180.347 159.011 174.716C158.527 168.664 157.288 163.024 155.586 157.217C154.862 154.744 152.401 154.674 151.317 156.858C146.367 166.826 141.182 176.962 139.528 188.131C138.976 191.862 138.015 195.068 134.807 197.342C133.268 198.434 132.557 198.916 132.906 200.947C133.573 204.835 131.485 207.049 127.772 207.615C125.6 207.944 122.806 207.661 120.847 207.687C116.625 207.742 113.611 208.011 110.277 206.965C107.517 206.1 107.121 203.787 107.502 201.232C107.707 199.857 107.707 198.94 106.563 198.173C103.994 196.453 102.161 194.6 101.31 191.577C101.162 191.049 101.006 189.927 100.844 188.213C100.363 183.097 99.0118 178.219 97.0567 173.558C94.8086 168.199 92.0828 162.441 88.8792 156.284C88.1867 154.953 86.344 154.722 85.4267 155.858C85.218 156.116 85.0005 156.628 84.7744 157.394C81.2797 169.15 79.0718 183.564 85.0714 194.909C86.4136 197.448 87.62 200.051 88.6905 202.717C89.0813 203.692 89.4332 204.331 89.7463 204.634C90.5519 205.416 91.5642 205.388 92.7833 204.552C92.98 204.418 93.2028 204.355 93.4517 204.361C93.4837 204.363 93.5144 204.375 93.5388 204.395C93.5632 204.416 93.5799 204.444 93.5862 204.476ZM109.658 186.479C108.996 188.47 110.666 190.421 112.719 189.61C113.273 189.391 113.775 189.122 114.357 189.14C116.023 189.197 117.426 191.7 117.796 193.223C117.93 193.777 118.01 194.391 118.275 194.859C119.379 196.822 122.2 196.336 122.717 194.122C123.338 191.485 125.343 189.12 128.288 189.456C129.095 189.548 129.793 190.01 130.596 189.971C132.111 189.897 132.971 188.404 132.818 187.017C132.641 185.385 131.632 184.51 130.082 184.09C127.563 183.41 125.929 184.056 124.052 185.584C122.418 186.912 121.24 187.37 119.337 186.154C117.254 184.823 115.389 183.693 112.824 184.074C111.274 184.305 110.154 184.983 109.658 186.479ZM109.546 205.678C111.26 207.041 112.591 206.792 114.618 206.806C118.365 206.833 122.111 206.856 125.857 206.877C129.086 206.895 132.15 205.875 132.294 202.107C132.36 200.411 131.335 199.478 129.755 199.199C127.685 198.831 125.611 198.484 123.534 198.159C122.459 197.99 121.202 198.51 120.19 198.845C120.128 198.866 120.061 198.863 120.002 198.837C117.101 197.611 113.448 198.683 110.477 199.233C107.513 199.781 107.519 204.066 109.546 205.678Z" fill="#FEB801"/>
<path d="M116.455 106.815L116.427 106.905C116.397 106.999 116.338 107.027 116.248 106.988C113.615 105.845 110.859 105.298 107.982 105.348C107.934 105.348 107.888 105.331 107.852 105.3C107.816 105.269 107.793 105.226 107.787 105.179L107.607 103.874C107.581 103.69 107.662 103.595 107.848 103.591C112.207 103.513 115.491 104.74 119.329 106.367C119.805 106.57 120.672 106.584 121.138 106.351C124.956 104.441 128.549 103.433 132.868 103.616C132.93 103.618 132.955 103.65 132.944 103.712L132.836 104.306C132.82 104.393 132.768 104.432 132.681 104.422C129.841 104.104 127.271 104.465 124.972 105.504C123.376 106.224 122.265 106.686 121.638 106.889C119.863 107.465 118.35 107.036 116.595 106.729C116.524 106.717 116.478 106.746 116.455 106.815Z" fill="#FEB801"/>
<path d="M114.702 133.517C114.721 133.529 114.734 133.547 114.741 133.568C115.319 135.282 116.647 140.705 115.527 142.295C115.469 142.379 115.416 142.375 115.371 142.283C114.957 141.432 115.136 140.788 115.122 139.959C115.081 137.771 114.746 135.627 114.118 133.527C114.097 133.454 114.124 133.412 114.199 133.403C114.383 133.382 114.551 133.42 114.702 133.517Z" fill="#FEB801"/>
<path d="M125.186 142.183C125.186 142.185 125.186 142.187 125.184 142.189C125.182 142.19 125.18 142.191 125.178 142.191H125.176C125.056 142.177 124.945 142.093 124.85 141.942C124.755 141.791 124.678 141.577 124.622 141.313C124.567 141.048 124.535 140.738 124.528 140.399C124.521 140.061 124.54 139.701 124.582 139.341L124.958 136.147C125.043 135.42 125.221 134.735 125.453 134.241C125.685 133.747 125.951 133.485 126.194 133.514H126.196C126.197 133.513 126.198 133.514 126.2 133.514C126.201 133.515 126.202 133.516 126.203 133.517C126.203 133.518 126.204 133.519 126.204 133.52C126.204 133.521 126.204 133.522 126.204 133.524L125.186 142.183Z" fill="#FEB801"/>
</svg>
